<?xml version="1.0" encoding="utf-8"?>
<svg viewBox="-7500 -6700 13900 13900" xmlns="http://www.w3.org/2000/svg">
	<path id="half-cult" d="M-550-3244l-1711-988-1670 964 1711 988-1711 988 1670 964 1711-988zm0 7324l-250-144-1461 843-1731-999V2093l-1711-988V-605l1711-988v-1687l8-5 4-2 1719-992 1711 988zm-3401-7312v1639l239 127 1410-814zm197 1790l-217-115-1671 964 1650 952v-1663zm3204 3789V418l-1670 964zm-1690 2373l1399-808-1399-808zm0-5013v1640l1670-965v-1639z" />
	<use transform="matrix(-1 0 0 1 -1100 0)" href="#half-cult"/>
</svg>
