<?xml version="1.0" encoding="utf-8"?>
<svg viewBox="0 0 1024 500" xmlns="http://www.w3.org/2000/svg">
  <polygon class="cls-3" points="921.094 435.299 892.754 418.939 892.754 390.589 864.404 374.219 864.404 402.569 836.064 386.199 836.064 414.549 864.404 430.919 864.404 459.259 892.754 475.629 892.754 447.279 921.094 463.649 921.094 435.299" style="stroke: rgb(0, 0, 0); stroke-miterlimit: 10;"/>
  <rect x="467.554" y="72.949" width="28.35" height="340.16"/>
  <rect x="524.244" y="72.949" width="28.35" height="56.69"/>
  <rect x="524.244" y="157.989" width="28.35" height="198.43"/>
  <rect x="580.944" y="214.689" width="28.35" height="198.43"/>
  <polygon points="694.324 269.449 779.364 220.359 779.364 192.009 694.324 241.109 694.324 269.449"/>
  <polygon points="524.244 269.449 609.284 220.359 609.284 192.009 524.244 241.109 524.244 269.449"/>
  <rect x="467.554" y="72.949" width="85.04" height="28.35"/>
  <rect x="467.554" y="384.769" width="85.04" height="28.35"/>
  <rect x="637.634" y="72.949" width="28.35" height="340.16"/>
  <rect x="694.324" y="72.949" width="28.35" height="56.69"/>
  <polygon points="722.674 413.109 694.324 413.109 694.324 294.059 722.674 277.689 722.674 413.109"/>
  <rect x="637.634" y="72.949" width="85.04" height="28.35"/>
  <rect x="637.634" y="384.769" width="85.04" height="28.35"/>
  <rect x="694.324" y="157.989" width="28.35" height="85.04"/>
  <rect x="751.024" y="72.949" width="28.35" height="147.4"/>
  <polygon points="779.364 413.109 751.024 413.109 751.024 265.709 779.364 249.339 779.364 413.109"/>
  <rect x="751.024" y="384.769" width="85.04" height="28.35"/>
  <polygon points="269.134 413.109 240.784 413.109 240.784 64.719 269.134 81.079 269.134 413.109"/>
  <polygon points="212.434 413.109 184.094 413.109 184.094 32.009 212.434 48.369 212.434 413.109"/>
  <rect x="354.174" y="72.949" width="28.35" height="340.16"/>
  <rect x="410.864" y="72.949" width="28.35" height="175.75"/>
  <rect x="410.864" y="299.729" width="28.35" height="113.39"/>
  <polygon points="439.204 269.449 354.164 220.359 354.164 192.009 439.204 241.109 439.204 269.449"/>
  <rect x="354.174" y="72.949" width="85.04" height="28.35"/>
  <rect x="354.174" y="384.769" width="85.04" height="28.35"/>
  <polygon points="269.134 106.879 269.134 135.229 297.474 118.869 297.474 413.109 325.824 413.109 325.824 74.149 269.134 106.879"/>
  <polygon points="212.434 76.719 240.784 93.089 240.784 64.739 212.434 48.369 212.434 76.719"/>
</svg>