<?xml version="1.0" encoding="utf-8"?>
<svg viewBox="-9500 -10000 21800 21400" xmlns="http://www.w3.org/2000/svg">
  <g id="_2653177098736" transform="matrix(1, 0, 0, 1, -14935.504883, -49589.71875)">
    <g id="_2653177105328" transform="matrix(1, 0, 0, 1, -10091.611328, -21814.585937)">
      <polygon class="fil0" points="30766.71,75587.06 30467.3,75414.17 30467.3,75114.97 30168.09,74942.08 30168.09,75241.5 29868.68,75068.62 29868.68,75368.03 30168.09,75540.71 30168.09,75840.12 30467.3,76012.8 30467.3,75713.59 30766.71,75886.47 "/>
      <path class="fil2" d="M28137.45 71236.6l1629.05 -940.54 -1710.84 -987.76 1710.85 -987.77 -1629.05 -940.53 -1710.85 987.75 -1710.93 -987.8 -1629.07 940.53 1710.92 987.82 -1710.83 987.75 1629.04 940.55 1710.77 -987.72 1710.94 987.72zm1751.86 -2939.63l0 1687.06 1710.84 987.76 0 1733.66 -1711.02 987.87 -0.03 1686.52 -1751.74 1011.36 -1460.55 -843.26 -250.21 144.46 -250.28 -144.49 -1460.56 843.25 -1751.67 -1011.32 -0.02 -1686.52 -1711.02 -987.87 0 -1733.62 1710.84 -987.79 0 -1686.98 1751.95 -1011.47 1710.77 987.71 1710.85 -987.76 1751.85 1011.43zm-82 1686.05l0 -1591.61 -1588.05 916.89 1369.49 790.68 218.56 -115.96zm-6761.42 -1591.6l0 1591.6 218.55 115.95 1369.5 -790.67 -1588.05 -916.88zm8431.46 2603.92l-1629.88 -941.02 -175.13 92.92 216.96 125.26 0 1639.7 1588.05 -916.86zm-8296.5 -848.11l-175.12 -92.91 -1629.87 941.02 1588.04 916.86 0 -1639.71 216.95 -125.26zm4915.75 6125.98l0.02 -1544.99 -1338.01 772.5 1337.99 772.49zm-1670 -2361.85l1629.06 -940.93 -1629.05 -940.53 -1629.06 940.54 1629.05 940.92zm1670.01 -1011.74l0.01 -1592.23 -1629.19 -940.53 0.01 1592.16 1629.17 940.6zm-3340.02 3373.7l1338.1 -772.54 -1338.11 -772.56 0.01 1545.1zm-0.02 -4965.85l0.02 1592.16 1629.19 -940.61 -0.01 -1592.16 -1629.2 940.61z"/>
      <path class="fil2" d="M26831.68 82307.44l-23.12 -529.61 81.66 -3.52 23.12 529.61 -81.66 3.52zm6529.88 -4437.92l914 766.94 -52.52 62.78 -914 -766.94 52.52 -62.78zm-12699.72 1169.18l-766.94 914 -62.78 -52.52 766.94 -914 62.78 52.52zm-2030.66 -13529.44l832.62 698.66 -52.52 62.78 -832.62 -698.66 52.52 -62.78zm14390.92 -1200.94l-698.66 832.62 -62.78 -52.52 698.66 -832.62 62.78 52.52zm-13177.8 2218.87l1016.74 853.15 -52.52 62.78 -1016.74 -853.15 52.52 -62.78zm12159.87 -1005.75l-853.15 1016.74 -62.78 -52.52 853.15 -1016.74 62.78 52.52zm41.53 11243.94l924.21 775.51 -52.52 62.78 -924.21 -775.51 52.52 -62.78zm-10279.72 957.46l-775.51 924.21 -62.78 -52.52 775.51 -924.21 62.78 52.52zm12071.62 -479.55l977.37 684.37 -46.76 66.94 -977.37 -684.37 46.76 -66.94zm-12549.53 2271.45l-684.37 977.37 -66.94 -46.76 684.37 -977.37 66.94 46.76zm-3202.06 -13300.84l890.35 623.44 -46.76 66.94 -890.35 -623.44 46.76 -66.94zm14231.45 -2450.75l-623.44 890.35 -66.94 -46.76 623.44 -890.35 66.94 46.76zm-12934.23 3359.08l1087.23 761.29 -46.76 66.94 -1087.23 -761.29 46.76 -66.94zm12025.9 -2061.86l-761.29 1087.23 -66.94 -46.76 761.29 -1087.23 66.94 46.76zm1021.39 11197.67l988.28 692.01 -46.76 66.94 -988.28 -692.01 46.76 -66.94zm-10157.2 1849.62l-692.01 988.28 -66.94 -46.76 692.01 -988.28 66.94 46.76zm11983.95 -1529.8l1033.3 596.57 -40.68 70.78 -1033.3 -596.57 40.68 -70.78zm-12303.77 3356.55l-596.57 1033.3 -70.78 -40.68 596.57 -1033.3 70.78 40.68zm-4349.17 -12971.12l941.31 543.46 -40.68 70.78 -941.31 -543.46 40.68 -70.78zm13963.74 -3681.82l-543.46 941.31 -70.78 -40.68 543.46 -941.31 70.78 40.68zm-12592.12 4473.63l1149.44 663.63 -41 70.78 -1149.44 -663.63 41 -70.78zm11800.31 -3102.01l-663.63 1149.44 -70.78 -41 663.63 -1149.44 70.78 41zm1993.57 11065.9l1044.83 603.24 -41 70.78 -1044.83 -603.24 41 -70.78zm-9957.46 2727.98l-603.24 1044.83 -70.78 -41 603.24 -1044.83 70.78 41zm11805.11 -2568.7l1081.36 504.25 -34.58 74.3 -1081.36 -504.25 34.58 -74.3zm-11964.39 4416.35l-504.25 1081.36 -74.3 -34.58 504.25 -1081.36 74.3 34.58zm-5463.13 -12542.94l985.08 459.35 -34.58 74.3 -985.08 -459.35 34.58 -74.3zm13589.72 -4884.58l-459.35 985.08 -74.3 -34.58 459.35 -985.08 74.3 34.58zm-12154.48 5553.85l1202.91 560.92 -34.58 74.3 -1202.91 -560.92 34.58 -74.3zm11485.21 -4118.61l-560.92 1202.91 -74.3 -34.58 560.92 -1202.91 74.3 34.58zm2950.28 10849.99l1093.43 509.87 -34.58 74.3 -1093.43 -509.87 34.58 -74.3zm-9681.66 3585.5l-509.87 1093.43 -74.3 -34.58 509.87 -1093.43 74.3 34.58zm11536.16 -3587.67l1121.19 408.08 -27.86 76.86 -1121.19 -408.08 27.86 -76.86zm-11533.99 5442.17l-408.08 1121.19 -76.86 -27.86 408.08 -1121.19 76.86 27.86zm-6535.5 -12018.93l1021.37 371.75 -27.86 76.86 -1021.37 -371.75 27.86 -76.86zm13112.26 -6050.56l-371.75 1021.37 -76.86 -27.86 371.75 -1021.37 76.86 27.86zm-11624.15 6592.19l1247.22 453.95 -27.86 76.86 -1247.22 -453.95 27.86 -76.86zm11082.52 -5104.08l-453.95 1247.22 -76.86 -27.86 453.95 -1247.22 76.86 27.86zm3884.72 10551.71l1133.71 412.64 -27.86 76.86 -1133.71 -412.64 27.86 -76.86zm-9332.35 4415.53l-412.64 1133.71 -76.86 -27.86 412.64 -1133.71 76.86 27.86zm11179.7 -4579.46l1152.49 308.81 -21.14 79.1 -1152.49 -308.81 21.14 -79.1zm-11015.77 6426.81l-308.81 1152.49 -79.1 -21.14 308.81 -1152.49 79.1 21.14zm-7558.16 -11403.68l1049.88 281.32 -21.14 79.1 -1049.88 -281.32 21.14 -79.1zm12535.03 -7170.25l-281.32 1049.88 -79.1 -21.14 281.32 -1049.88 79.1 21.14zm-11005.37 7580.12l1282.03 343.52 -21.14 79.1 -1282.03 -343.52 21.14 -79.1zm10595.5 -6050.46l-343.52 1282.03 -79.1 -21.14 343.52 -1282.03 79.1 21.14zm4789.57 10172.88l1165.36 312.26 -21.14 79.1 -1165.36 -312.26 21.14 -79.1zm-8911.99 5212.19l-312.26 1165.36 -79.1 -21.14 312.26 -1165.36 79.1 21.14zm10737.95 -5536.48l1175.02 207.19 -14.1 80.7 -1175.02 -207.19 14.1 -80.7zm-10413.66 7362.44l-207.19 1175.02 -80.7 -14.1 207.19 -1175.02 80.7 14.1zm-8523.36 -10701.55l1070.41 188.74 -14.1 80.7 -1070.41 -188.74 14.1 -80.7zm11862.47 -8235.47l-188.74 1070.41 -80.7 -14.1 188.74 -1070.41 80.7 14.1zm-10302.91 8510.47l1307.1 230.47 -14.1 80.7 -1307.1 -230.47 14.1 -80.7zm10027.91 -6950.91l-230.47 1307.1 -80.7 -14.1 230.47 -1307.1 80.7 14.1zm5657.91 9716.74l1188.14 209.5 -14.1 80.7 -1188.14 -209.5 14.1 -80.7zm-8423.74 5969.08l-209.5 1188.14 -80.7 -14.1 209.5 -1188.14 80.7 14.1zm10214.53 -6451.27l1188.61 103.99 -7.04 81.66 -1188.61 -103.99 7.04 -81.66zm-9732.34 8242.06l-103.99 1188.61 -81.66 -7.04 103.99 -1188.61 81.66 7.04zm-9423.63 -9917.99l1082.78 94.73 -7.04 81.66 -1082.78 -94.73 7.04 -81.66zm11099.56 -9237.98l-94.73 1082.78 -81.66 -7.04 94.73 -1082.78 81.66 7.04zm-9521.97 9376l1322.21 115.68 -7.04 81.66 -1322.21 -115.68 7.04 -81.66zm9383.95 -7798.41l-115.68 1322.21 -81.66 -7.04 115.68 -1322.21 81.66 7.04zm6483.24 9186.61l1201.88 105.15 -7.04 81.66 -1201.88 -105.15 7.04 -81.66zm-7871.44 6680.58l-105.15 1201.88 -81.66 -7.04 105.15 -1201.88 81.66 7.04zm6943.14 -13681.68l843.68 -843.68 57.96 57.96 -843.68 843.68 -57.96 -57.96zm57.96 12753.38l843.68 843.68 -57.96 57.96 -843.68 -843.68 57.96 -57.96zm-13655.02 843.68l768.57 -768.57 57.96 57.96 -768.57 768.57 -57.96 -57.96zm57.96 -14440.74l768.57 768.57 -57.96 57.96 -768.57 -768.57 57.96 -57.96zm1061.83 13320.95l938.51 -938.51 57.96 57.96 -938.51 938.51 -57.96 -57.96zm57.96 -12201.16l938.51 938.51 -57.96 57.96 -938.51 -938.51 57.96 -57.96zm11204.69 938.51l853.1 -853.1 57.96 57.96 -853.1 853.1 -57.96 -57.96zm57.96 10324.14l853.1 853.1 -57.96 57.96 -853.1 -853.1 57.96 -57.96zm1690.88 -10961.14l914 -766.94 52.52 62.78 -914 766.94 -52.52 -62.78zm-1053.88 12709.98l766.94 914 -62.78 52.52 -766.94 -914 62.78 -52.52zm-13676.5 -349.72l832.62 -698.66 52.52 62.78 -832.62 698.66 -52.52 -62.78zm1316.24 -14380.66l698.66 832.62 -62.78 52.52 -698.66 -832.62 62.78 -52.52zm-103.12 13362.73l1016.74 -853.15 52.52 62.78 -1016.74 853.15 -52.52 -62.78zm1121.05 -12149.61l853.15 1016.74 -62.78 52.52 -853.15 -1016.74 62.78 -52.52zm11080.35 1911.42l924.21 -775.51 52.52 62.78 -924.21 775.51 -52.52 -62.78zm-842.16 10289.98l775.51 924.21 -62.78 52.52 -775.51 -924.21 62.78 -52.52zm2639.82 -10772.05l977.37 -684.37 46.76 66.94 -977.37 684.37 -46.76 -66.94zm-2157.75 12569.71l684.37 977.37 -66.94 46.76 -684.37 -977.37 66.94 -46.76zm-13593.84 -1540.32l890.35 -623.44 46.76 66.94 -890.35 623.44 -46.76 -66.94zm2564.45 -14211.27l623.44 890.35 -66.94 46.76 -623.44 -890.35 66.94 -46.76zm-1267.23 13302.94l1087.23 -761.29 46.76 66.94 -1087.23 761.29 -46.76 -66.94zm2175.56 -12005.72l761.29 1087.23 -66.94 46.76 -761.29 -1087.23 66.94 -46.76zm10871.73 2869.91l988.28 -692.01 46.76 66.94 -988.28 692.01 -46.76 -66.94zm-1735.92 10177.38l692.01 988.28 -66.94 46.76 -692.01 -988.28 66.94 -46.76zm3568.75 -10501.04l1033.3 -596.57 40.68 70.78 -1033.3 596.57 -40.68 -70.78zm-3245.09 12333.87l596.57 1033.3 -70.78 40.68 -596.57 -1033.3 70.78 -40.68zm-13407.85 -2719.3l941.31 -543.46 40.68 70.78 -941.31 543.46 -40.68 -70.78zm3793.28 -13933.64l543.46 941.31 -70.78 40.68 -543.46 -941.31 70.78 -40.68zm-2421.98 13141.83l1149.44 -663.63 41 70.78 -1149.44 663.63 -41 -70.78zm3213.79 -11770.53l663.63 1149.44 -70.78 41 -663.63 -1149.44 70.78 -41zm10580.09 3806.64l1044.83 -603.24 41 70.78 -1044.83 603.24 -41 -70.78zm-2616.2 9987.24l603.24 1044.83 -70.78 41 -603.24 -1044.83 70.78 -41zm4470.27 -10150.04l1081.36 -504.25 34.58 74.3 -1081.36 504.25 -34.58 -74.3zm-4307.47 12004.11l504.25 1081.36 -74.3 34.58 -504.25 -1081.36 74.3 -34.58zm-13120.05 -3877.52l985.08 -459.35 34.58 74.3 -985.08 459.35 -34.58 -74.3zm4993.46 -13550l459.35 985.08 -74.3 34.58 -459.35 -985.08 74.3 -34.58zm-3558.22 12880.73l1202.91 -560.92 34.58 74.3 -1202.91 560.92 -34.58 -74.3zm4227.49 -11445.49l560.92 1202.91 -74.3 34.58 -560.92 -1202.91 74.3 -34.58zm10208 4714.11l1093.43 -509.87 34.58 74.3 -1093.43 509.87 -34.58 -74.3zm-3476.62 9721.38l509.87 1093.43 -74.3 34.58 -509.87 -1093.43 74.3 -34.58zm5337.84 -9721.77l1121.19 -408.08 27.86 76.86 -1121.19 408.08 -27.86 -76.86zm-5337.45 11582.99l408.08 1121.19 -76.86 27.86 -408.08 -1121.19 76.86 -27.86zm-12732.04 -5006.23l1021.37 -371.75 27.86 76.86 -1021.37 371.75 -27.86 -76.86zm6155.28 -13063.26l371.75 1021.37 -76.86 27.86 -371.75 -1021.37 76.86 -27.86zm-4667.17 12521.63l1247.22 -453.95 27.86 76.86 -1247.22 453.95 -27.86 -76.86zm5208.8 -11033.52l453.95 1247.22 -76.86 27.86 -453.95 -1247.22 76.86 -27.86zm9758.44 5585.89l1133.71 -412.64 27.86 76.86 -1133.71 412.64 -27.86 -76.86zm-4310.81 9381.35l412.64 1133.71 -76.86 27.86 -412.64 -1133.71 76.86 -27.86zm6164.88 -9219.66l1152.49 -308.81 21.14 79.1 -1152.49 308.81 -21.14 -79.1zm-6326.57 11073.73l308.81 1152.49 -79.1 21.14 -308.81 -1152.49 79.1 -21.14zm-12247.36 -6096.86l1049.88 -281.32 21.14 79.1 -1049.88 281.32 -21.14 -79.1zm7270.49 -12477.07l281.32 1049.88 -79.1 21.14 -281.32 -1049.88 79.1 -21.14zm-5740.83 12067.2l1282.03 -343.52 21.14 79.1 -1282.03 343.52 -21.14 -79.1zm6150.7 -10537.54l343.52 1282.03 -79.1 21.14 -343.52 -1282.03 79.1 -21.14zm9234.37 6415.12l1165.36 -312.26 21.14 79.1 -1165.36 312.26 -21.14 -79.1zm-5111.95 8969.95l312.26 1165.36 -79.1 21.14 -312.26 -1165.36 79.1 -21.14zm6944.95 -8647.26l1175.02 -207.19 14.1 80.7 -1175.02 207.19 -14.1 -80.7zm-7267.64 10480.26l207.19 1175.02 -80.7 14.1 -207.19 -1175.02 80.7 -14.1zm-11669.38 -7141.15l1070.41 -188.74 14.1 80.7 -1070.41 188.74 -14.1 -80.7zm8330.27 -11795.87l188.74 1070.41 -80.7 14.1 -188.74 -1070.41 80.7 -14.1zm-6770.71 11520.87l1307.1 -230.47 14.1 80.7 -1307.1 230.47 -14.1 -80.7zm7045.71 -9961.31l230.47 1307.1 -80.7 14.1 -230.47 -1307.1 80.7 -14.1zm8640.11 7195.48l1188.14 -209.5 14.1 80.7 -1188.14 209.5 -14.1 -80.7zm-5874.28 8490.34l209.5 1188.14 -80.7 14.1 -209.5 -1188.14 80.7 -14.1zm7672.13 -8009.11l1188.61 -103.99 7.04 81.66 -1188.61 103.99 -7.04 -81.66zm-8153.36 9806.96l103.99 1188.61 -81.66 7.04 -103.99 -1188.61 81.66 -7.04zm-11002.61 -8131.03l1082.78 -94.73 7.04 81.66 -1082.78 94.73 -7.04 -81.66zm9326.68 -11024.94l94.73 1082.78 -81.66 7.04 -94.73 -1082.78 81.66 -7.04zm-7749.09 10886.92l1322.21 -115.68 7.04 81.66 -1322.21 115.68 -7.04 -81.66zm7887.11 -9309.33l115.68 1322.21 -81.66 7.04 -115.68 -1322.21 81.66 -7.04zm7980.08 7921.13l1201.88 -105.15 7.04 81.66 -1201.88 105.15 -7.04 -81.66zm-6591.88 7946.06l105.15 1201.88 -81.66 7.04 -105.15 -1201.88 81.66 -7.04zm8340.91 -7309.97l1193.15 0 0 82 -1193.15 0 0 -82zm-8977 9059l0 1193.15 -82 0 0 -1193.15 82 0zm-10252.15 -9059l1086.92 0 0 82 -1086.92 0 0 -82zm10252.15 -10170.15l0 1086.92 -82 0 0 -1086.92 82 0zm-8668.53 10170.15l1327.26 0 0 82 -1327.26 0 0 -82zm8668.53 -8586.53l0 1327.26 -82 0 0 -1327.26 82 0zm7259.27 8586.53l1206.47 0 0 82 -1206.47 0 0 -82zm-7259.27 7341.27l0 1206.47 -82 0 0 -1206.47 82 0zm-426.66 595.91l26.33 -602.97 81.66 3.52 -26.33 602.97 -81.66 -3.52zm-56.01 1282.97l33.54 -768.51 81.66 3.52 -33.54 768.51 -81.66 -3.52zm-44.57 1020.52l23.13 -529.61 81.66 3.52 -23.13 529.61 -81.66 -3.52zm871.9 -18095.85l-26.33 602.97 -81.66 -3.52 26.33 -602.97 81.66 3.52zm56.01 -1282.97l-33.54 768.51 -81.66 -3.52 33.54 -768.51 81.66 3.52zm44.57 -1020.52l-23.13 529.61 -81.66 -3.52 23.13 -529.61 81.66 3.52zm-1558.62 18032.22l78.78 -598.38 81.02 10.56 -78.78 598.38 -81.02 -10.56zm-167.62 1273.21l100.4 -762.66 81.02 10.56 -100.4 762.66 -81.02 -10.56zm-133.34 1012.75l69.2 -525.58 81.02 10.56 -69.2 525.58 -81.02 -10.56zm2445.72 -17951.06l-78.78 598.38 -81.02 -10.56 78.78 -598.38 81.02 10.56zm167.62 -1273.21l-100.4 762.66 -81.02 -10.56 100.4 -762.66 81.02 10.56zm133.34 -1012.75l-69.2 525.58 -81.02 -10.56 69.2 -525.58 81.02 10.56zm-3124.27 17827.77l130.64 -589.23 79.74 17.62 -130.64 589.23 -79.74 -17.62zm-277.94 1253.76l166.49 -751.01 79.74 17.62 -166.49 751.01 -79.74 -17.62zm-221.1 997.27l114.74 -517.55 79.74 17.62 -114.74 517.55 -79.74 -17.62zm4000.9 -17669.55l-130.64 589.23 -79.74 -17.62 130.64 -589.23 79.74 17.62zm277.94 -1253.76l-166.49 751.01 -79.74 -17.62 166.49 -751.01 79.74 17.62zm221.1 -997.27l-114.74 517.55 -79.74 -17.62 114.74 -517.55 79.74 17.62zm-4666.26 17487.69l181.49 -575.6 78.14 24.34 -181.49 575.6 -78.14 -24.34zm-386.16 1224.76l231.31 -733.64 78.14 24.34 -231.31 733.64 -78.14 -24.34zm-307.18 974.21l159.42 -505.57 78.14 24.34 -159.42 505.57 -78.14 -24.34zm5525.92 -17253.77l-181.49 575.6 -78.14 -24.34 181.49 -575.6 78.14 24.34zm386.16 -1224.76l-231.31 733.64 -78.14 -24.34 231.31 -733.64 78.14 24.34zm307.18 -974.21l-159.42 505.57 -78.14 -24.34 159.42 -505.57 78.14 24.34zm-6172.71 17014.54l230.97 -557.6 75.58 31.06 -230.97 557.6 -75.58 -31.06zm-491.44 1186.44l294.37 -710.69 75.58 31.06 -294.37 710.69 -75.58 -31.06zm-390.91 943.73l202.87 -489.76 75.58 31.06 -202.87 489.76 -75.58 -31.06zm7008.51 -16706.51l-230.97 557.6 -75.58 -31.06 230.97 -557.6 75.58 31.06zm491.44 -1186.44l-294.37 710.69 -75.58 -31.06 294.37 -710.69 75.58 31.06zm390.91 -943.73l-202.87 489.76 -75.58 -31.06 202.87 -489.76 75.58 31.06zm-7632.12 16411.67l278.69 -535.35 72.7 37.8 -278.69 535.35 -72.7 -37.8zm-592.97 1139.1l355.19 -682.33 72.7 37.8 -355.19 682.33 -72.7 -37.8zm-471.68 906.07l244.79 -470.22 72.7 37.8 -244.79 470.22 -72.7 -37.8zm8438.03 -16031.83l-278.69 535.35 -72.7 -37.8 278.69 -535.35 72.7 37.8zm592.97 -1139.1l-355.19 682.33 -72.7 -37.8 355.19 -682.33 72.7 37.8zm471.68 -906.07l-244.79 470.22 -72.7 -37.8 244.79 -470.22 72.7 37.8zm-9033.37 15683.96l324.29 -509.02 68.86 43.88 -324.29 509.02 -68.86 -43.88zm-690 1083.08l413.31 -648.78 68.86 43.88 -413.31 648.78 -68.86 -43.88zm-548.85 861.51l284.83 -447.09 68.86 43.88 -284.83 447.09 -68.86 -43.88zm9802.91 -15235.51l-324.29 509.02 -68.86 -43.88 324.29 -509.02 68.86 43.88zm690 -1083.08l-413.31 648.78 -68.86 -43.88 413.31 -648.78 68.86 43.88zm548.85 -861.51l-284.83 447.09 -68.86 -43.88 284.83 -447.09 68.86 43.88zm-10365.93 14837.06l367.42 -478.82 65.02 49.64 -367.42 478.82 -65.02 -49.64zm-781.77 1018.82l468.28 -610.29 65.02 49.64 -468.28 610.29 -65.02 -49.64zm-621.85 810.4l322.72 -420.57 65.02 49.64 -322.72 420.57 -65.02 -49.64zm11093.72 -14323.24l-367.42 478.82 -65.02 -49.64 367.42 -478.82 65.02 49.64zm781.77 -1018.82l-468.28 610.29 -65.02 -49.64 468.28 -610.29 65.02 49.64zm621.85 -810.4l-322.72 420.57 -65.02 -49.64 322.72 -420.57 65.02 49.64zm-11619.64 13877.21l407.76 -444.98 60.22 55.08 -407.76 444.98 -60.22 -55.08zm-867.58 946.81l519.69 -567.15 60.22 55.08 -519.69 567.15 -60.22 -55.08zm-690.11 753.12l358.14 -390.84 60.22 55.08 -358.14 390.84 -60.22 -55.08zm12299.63 -13301.89l-407.76 444.98 -60.22 -55.08 407.76 -444.98 60.22 55.08zm867.58 -946.81l-519.69 567.15 -60.22 -55.08 519.69 -567.15 60.22 55.08zm690.11 -753.12l-358.14 390.84 -60.22 -55.08 358.14 -390.84 60.22 55.08zm-12784.72 12811.65l444.98 -407.74 55.08 60.22 -444.98 407.74 -55.08 -60.22zm-946.8 867.59l567.14 -519.69 55.08 60.22 -567.14 519.69 -55.08 -60.22zm-753.13 690.11l390.84 -358.14 55.08 60.22 -390.84 358.14 -55.08 -60.22zm13412.05 -12179.18l-444.98 407.74 -55.08 -60.22 444.98 -407.74 55.08 60.22zm946.8 -867.59l-567.14 519.69 -55.08 -60.22 567.14 -519.69 55.08 60.22zm753.13 -690.11l-390.84 358.14 -55.08 -60.22 390.84 -358.14 55.08 60.22zm-13852.64 11648.47l478.83 -367.41 49.64 65.02 -478.83 367.41 -49.64 -65.02zm-1018.81 781.77l610.27 -468.29 49.64 65.02 -610.27 468.29 -49.64 -65.02zm-810.41 621.84l420.57 -322.71 49.64 65.02 -420.57 322.71 -49.64 -65.02zm14422.52 -10963.67l-478.83 367.41 -49.64 -65.02 478.83 -367.41 49.64 65.02zm1018.81 -781.77l-610.27 468.29 -49.64 -65.02 610.27 -468.29 49.64 65.02zm810.41 -621.84l-420.57 322.71 -49.64 -65.02 420.57 -322.71 49.64 65.02zm-14815.21 10396.81l509.03 -324.28 43.88 68.86 -509.03 324.28 -43.88 -68.86zm-1083.08 690l648.77 -413.32 43.88 68.86 -648.77 413.32 -43.88 -68.86zm-861.52 548.84l447.1 -284.82 43.88 68.86 -447.1 284.82 -43.88 -68.86zm15323.28 -9665.18l-509.03 324.28 -43.88 -68.86 509.03 -324.28 43.88 68.86zm1083.08 -690l-648.77 413.32 -43.88 -68.86 648.77 -413.32 43.88 68.86zm861.52 -548.84l-447.1 284.82 -43.88 -68.86 447.1 -284.82 43.88 68.86zm-15665.07 9066l535.35 -278.68 37.8 72.7 -535.35 278.68 -37.8 -72.7zm-1139.09 592.97l682.32 -355.2 37.8 72.7 -682.32 355.2 -37.8 -72.7zm-906.08 471.67l470.22 -244.78 37.8 72.7 -470.22 244.78 -37.8 -72.7zm16107.43 -8292.62l-535.35 278.68 -37.8 -72.7 535.35 -278.68 37.8 72.7zm1139.09 -592.97l-682.32 355.2 -37.8 -72.7 682.32 -355.2 37.8 72.7zm906.08 -471.67l-470.22 244.78 -37.8 -72.7 470.22 -244.78 37.8 72.7zm-16395.53 7666.13l557.61 -230.96 31.06 75.58 -557.61 230.96 -31.06 -75.58zm-1186.43 491.44l710.68 -294.38 31.06 75.58 -710.68 294.38 -31.06 -75.58zm-943.74 390.9l489.76 -202.86 31.06 75.58 -489.76 202.86 -31.06 -75.58zm16768.63 -6857.34l-557.61 230.96 -31.06 -75.58 557.61 -230.96 31.06 75.58zm1186.43 -491.44l-710.68 294.38 -31.06 -75.58 710.68 -294.38 31.06 75.58zm943.74 -390.9l-489.76 202.86 -31.06 -75.58 489.76 -202.86 31.06 75.58zm-17001.15 6207.99l575.62 -181.49 24.34 78.14 -575.62 181.49 -24.34 -78.14zm-1224.75 386.17l733.64 -231.33 24.34 78.14 -733.64 231.33 -24.34 -78.14zm-974.22 307.16l505.58 -159.41 24.34 78.14 -505.58 159.41 -24.34 -78.14zm17302.47 -5369.63l-575.62 181.49 -24.34 -78.14 575.62 -181.49 24.34 78.14zm1224.75 -386.17l-733.64 231.33 -24.34 -78.14 733.64 -231.33 24.34 78.14zm974.22 -307.16l-505.58 159.41 -24.34 -78.14 505.58 -159.41 24.34 78.14zm-17477.6 4702.66l589.24 -130.62 17.62 79.74 -589.24 130.62 -17.62 -79.74zm-1253.75 277.96l751 -166.5 17.62 79.74 -751 166.5 -17.62 -79.74zm-997.28 221.08l517.54 -114.73 17.62 79.74 -517.54 114.73 -17.62 -79.74zm17704.79 -3841.4l-589.24 130.62 -17.62 -79.74 589.24 -130.62 17.62 79.74zm1253.75 -277.96l-751 166.5 -17.62 -79.74 751 -166.5 17.62 79.74zm997.28 -221.08l-517.54 114.73 -17.62 -79.74 517.54 -114.73 17.62 79.74zm-17821.02 3161.58l598.38 -78.77 10.56 81.02 -598.38 78.77 -10.56 -81.02zm-1273.21 167.62l762.66 -100.41 10.56 81.02 -762.66 100.41 -10.56 -81.02zm-1012.75 133.33l525.58 -69.19 10.56 81.02 -525.58 69.19 -10.56 -81.02zm17972.18 -2283.67l-598.38 78.77 -10.56 -81.02 598.38 -78.77 10.56 81.02zm1273.21 -167.62l-762.66 100.41 -10.56 -81.02 762.66 -100.41 10.56 81.02zm1012.75 -133.33l-525.58 69.19 -10.56 -81.02 525.58 -69.19 10.56 81.02zm-18028.77 1596.31l602.97 -26.32 3.52 81.66 -602.97 26.32 -3.52 -81.66zm-1282.97 56.02l768.51 -33.56 3.52 81.66 -768.51 33.56 -3.52 -81.66zm-1020.52 44.55l529.61 -23.12 3.52 81.66 -529.61 23.12 -3.52 -81.66zm18102.89 -708.57l-602.97 26.32 -3.52 -81.66 602.97 -26.32 3.52 81.66zm1282.97 -56.02l-768.51 33.56 -3.52 -81.66 768.51 -33.56 3.52 81.66zm1020.52 -44.55l-529.61 23.12 -3.52 -81.66 529.61 -23.12 3.52 81.66zm-18099.37 18.91l602.97 26.33 -3.52 81.66 -602.97 -26.33 3.52 -81.66zm-1282.97 -56.01l768.51 33.54 -3.52 81.66 -768.51 -33.54 3.52 -81.66zm-1020.52 -44.57l529.61 23.13 -3.52 81.66 -529.61 -23.13 3.52 -81.66zm18095.85 871.9l-602.97 -26.33 3.52 -81.66 602.97 26.33 -3.52 81.66zm1282.97 56.01l-768.51 -33.54 3.52 -81.66 768.51 33.54 -3.52 81.66zm1020.52 44.57l-529.61 -23.13 3.52 -81.66 529.61 23.13 -3.52 81.66zm-18032.22 -1558.62l598.38 78.78 -10.56 81.02 -598.38 -78.78 10.56 -81.02zm-1273.21 -167.62l762.66 100.4 -10.56 81.02 -762.66 -100.4 10.56 -81.02zm-1012.75 -133.34l525.58 69.2 -10.56 81.02 -525.58 -69.2 10.56 -81.02zm17951.06 2445.72l-598.38 -78.78 10.56 -81.02 598.38 78.78 -10.56 81.02zm1273.21 167.62l-762.66 -100.4 10.56 -81.02 762.66 100.4 -10.56 81.02zm1012.75 133.34l-525.58 -69.2 10.56 -81.02 525.58 69.2 -10.56 81.02zm-17827.77 -3124.27l589.23 130.64 -17.62 79.74 -589.23 -130.64 17.62 -79.74zm-1253.76 -277.94l751.01 166.49 -17.62 79.74 -751.01 -166.49 17.62 -79.74zm-997.27 -221.1l517.55 114.74 -17.62 79.74 -517.55 -114.74 17.62 -79.74zm17669.55 4000.9l-589.23 -130.64 17.62 -79.74 589.23 130.64 -17.62 79.74zm1253.76 277.94l-751.01 -166.49 17.62 -79.74 751.01 166.49 -17.62 79.74zm997.27 221.1l-517.55 -114.74 17.62 -79.74 517.55 114.74 -17.62 79.74zm-17487.69 -4666.26l575.6 181.49 -24.34 78.14 -575.6 -181.49 24.34 -78.14zm-1224.76 -386.16l733.64 231.31 -24.34 78.14 -733.64 -231.31 24.34 -78.14zm-974.21 -307.18l505.57 159.42 -24.34 78.14 -505.57 -159.42 24.34 -78.14zm17253.77 5525.92l-575.6 -181.49 24.34 -78.14 575.6 181.49 -24.34 78.14zm1224.76 386.16l-733.64 -231.31 24.34 -78.14 733.64 231.31 -24.34 78.14zm974.21 307.18l-505.57 -159.42 24.34 -78.14 505.57 159.42 -24.34 78.14zm-17014.54 -6172.71l557.6 230.97 -31.06 75.58 -557.6 -230.97 31.06 -75.58zm-1186.44 -491.44l710.69 294.37 -31.06 75.58 -710.69 -294.37 31.06 -75.58zm-943.73 -390.91l489.76 202.87 -31.06 75.58 -489.76 -202.87 31.06 -75.58zm16706.51 7008.51l-557.6 -230.97 31.06 -75.58 557.6 230.97 -31.06 75.58zm1186.44 491.44l-710.69 -294.37 31.06 -75.58 710.69 294.37 -31.06 75.58zm943.73 390.91l-489.76 -202.87 31.06 -75.58 489.76 202.87 -31.06 75.58zm-16411.67 -7632.12l535.35 278.69 -37.8 72.7 -535.35 -278.69 37.8 -72.7zm-1139.1 -592.97l682.33 355.19 -37.8 72.7 -682.33 -355.19 37.8 -72.7zm-906.07 -471.68l470.22 244.79 -37.8 72.7 -470.22 -244.79 37.8 -72.7zm16031.83 8438.03l-535.35 -278.69 37.8 -72.7 535.35 278.69 -37.8 72.7zm1139.1 592.97l-682.33 -355.19 37.8 -72.7 682.33 355.19 -37.8 72.7zm906.07 471.68l-470.22 -244.79 37.8 -72.7 470.22 244.79 -37.8 72.7zm-15683.96 -9033.37l509.02 324.29 -43.88 68.86 -509.02 -324.29 43.88 -68.86zm-1083.08 -690l648.78 413.31 -43.88 68.86 -648.78 -413.31 43.88 -68.86zm-861.51 -548.85l447.09 284.83 -43.88 68.86 -447.09 -284.83 43.88 -68.86zm15235.51 9802.91l-509.02 -324.29 43.88 -68.86 509.02 324.29 -43.88 68.86zm1083.08 690l-648.78 -413.31 43.88 -68.86 648.78 413.31 -43.88 68.86zm861.51 548.85l-447.09 -284.83 43.88 -68.86 447.09 284.83 -43.88 68.86zm-14837.06 -10365.93l478.82 367.42 -49.64 65.02 -478.82 -367.42 49.64 -65.02zm-1018.82 -781.77l610.29 468.28 -49.64 65.02 -610.29 -468.28 49.64 -65.02zm-810.4 -621.85l420.57 322.72 -49.64 65.02 -420.57 -322.72 49.64 -65.02zm14323.24 11093.72l-478.82 -367.42 49.64 -65.02 478.82 367.42 -49.64 65.02zm1018.82 781.77l-610.29 -468.28 49.64 -65.02 610.29 468.28 -49.64 65.02zm810.4 621.85l-420.57 -322.72 49.64 -65.02 420.57 322.72 -49.64 65.02zm-13877.21 -11619.64l444.98 407.76 -55.08 60.22 -444.98 -407.76 55.08 -60.22zm-946.81 -867.58l567.15 519.69 -55.08 60.22 -567.15 -519.69 55.08 -60.22zm-753.12 -690.11l390.84 358.14 -55.08 60.22 -390.84 -358.14 55.08 -60.22zm13301.89 12299.63l-444.98 -407.76 55.08 -60.22 444.98 407.76 -55.08 60.22zm946.81 867.58l-567.15 -519.69 55.08 -60.22 567.15 519.69 -55.08 60.22zm753.12 690.11l-390.84 -358.14 55.08 -60.22 390.84 358.14 -55.08 60.22zm-12811.65 -12784.72l407.74 444.98 -60.22 55.08 -407.74 -444.98 60.22 -55.08zm-867.59 -946.8l519.69 567.14 -60.22 55.08 -519.69 -567.14 60.22 -55.08zm-690.11 -753.13l358.14 390.84 -60.22 55.08 -358.14 -390.84 60.22 -55.08zm12179.18 13412.05l-407.74 -444.98 60.22 -55.08 407.74 444.98 -60.22 55.08zm867.59 946.8l-519.69 -567.14 60.22 -55.08 519.69 567.14 -60.22 55.08zm690.11 753.13l-358.14 -390.84 60.22 -55.08 358.14 390.84 -60.22 55.08zm-11648.47 -13852.64l367.41 478.83 -65.02 49.64 -367.41 -478.83 65.02 -49.64zm-781.77 -1018.81l468.29 610.27 -65.02 49.64 -468.29 -610.27 65.02 -49.64zm-621.84 -810.41l322.71 420.57 -65.02 49.64 -322.71 -420.57 65.02 -49.64zm10963.67 14422.52l-367.41 -478.83 65.02 -49.64 367.41 478.83 -65.02 49.64zm781.77 1018.81l-468.29 -610.27 65.02 -49.64 468.29 610.27 -65.02 49.64zm621.84 810.41l-322.71 -420.57 65.02 -49.64 322.71 420.57 -65.02 49.64zm-10396.81 -14815.21l324.28 509.03 -68.86 43.88 -324.28 -509.03 68.86 -43.88zm-690 -1083.08l413.32 648.77 -68.86 43.88 -413.32 -648.77 68.86 -43.88zm-548.84 -861.52l284.82 447.1 -68.86 43.88 -284.82 -447.1 68.86 -43.88zm9665.18 15323.28l-324.28 -509.03 68.86 -43.88 324.28 509.03 -68.86 43.88zm690 1083.08l-413.32 -648.77 68.86 -43.88 413.32 648.77 -68.86 43.88zm548.84 861.52l-284.82 -447.1 68.86 -43.88 284.82 447.1 -68.86 43.88zm-9066 -15665.07l278.68 535.35 -72.7 37.8 -278.68 -535.35 72.7 -37.8zm-592.97 -1139.09l355.2 682.32 -72.7 37.8 -355.2 -682.32 72.7 -37.8zm-471.67 -906.08l244.78 470.22 -72.7 37.8 -244.78 -470.22 72.7 -37.8zm8292.62 16107.43l-278.68 -535.35 72.7 -37.8 278.68 535.35 -72.7 37.8zm592.97 1139.09l-355.2 -682.32 72.7 -37.8 355.2 682.32 -72.7 37.8zm471.67 906.08l-244.78 -470.22 72.7 -37.8 244.78 470.22 -72.7 37.8zm-7666.13 -16395.53l230.96 557.61 -75.58 31.06 -230.96 -557.61 75.58 -31.06zm-491.44 -1186.43l294.38 710.68 -75.58 31.06 -294.38 -710.68 75.58 -31.06zm-390.9 -943.74l202.86 489.76 -75.58 31.06 -202.86 -489.76 75.58 -31.06zm6857.34 16768.63l-230.96 -557.61 75.58 -31.06 230.96 557.61 -75.58 31.06zm491.44 1186.43l-294.38 -710.68 75.58 -31.06 294.38 710.68 -75.58 31.06zm390.9 943.74l-202.86 -489.76 75.58 -31.06 202.86 489.76 -75.58 31.06zm-5541.02 -17176.28l130.62 589.24 -79.74 17.62 -130.62 -589.24 79.74 -17.62zm-277.96 -1253.75l166.5 751 -79.74 17.62 -166.5 -751 79.74 -17.62zm-221.08 -997.28l114.73 517.54 -79.74 17.62 -114.73 -517.54 79.74 -17.62zm3841.4 17704.79l-130.62 -589.24 79.74 -17.62 130.62 589.24 -79.74 17.62zm277.96 1253.75l-166.5 -751 79.74 -17.62 166.5 751 -79.74 17.62zm221.08 997.28l-114.73 -517.54 79.74 -17.62 114.73 517.54 -79.74 17.62zm-4508.37 -17529.66l181.49 575.62 -78.14 24.34 -181.49 -575.62 78.14 -24.34zm-386.17 -1224.75l231.33 733.64 -78.14 24.34 -231.33 -733.64 78.14 -24.34zm-307.16 -974.22l159.41 505.58 -78.14 24.34 -159.41 -505.58 78.14 -24.34zm5369.63 17302.47l-181.49 -575.62 78.14 -24.34 181.49 575.62 -78.14 24.34zm386.17 1224.75l-231.33 -733.64 78.14 -24.34 231.33 733.64 -78.14 24.34zm307.16 974.22l-159.41 -505.58 78.14 -24.34 159.41 505.58 -78.14 24.34zm-4022.84 -17593.83l78.77 598.38 -81.02 10.56 -78.77 -598.38 81.02 -10.56zm-167.62 -1273.21l100.41 762.66 -81.02 10.56 -100.41 -762.66 81.02 -10.56zm-133.33 -1012.75l69.19 525.58 -81.02 10.56 -69.19 -525.58 81.02 -10.56zm2283.67 17972.18l-78.77 -598.38 81.02 -10.56 78.77 598.38 -81.02 10.56zm167.62 1273.21l-100.41 -762.66 81.02 -10.56 100.41 762.66 -81.02 10.56zm133.33 1012.75l-69.19 -525.58 81.02 -10.56 69.19 525.58 -81.02 10.56zm-1596.31 -18028.77l26.32 602.97 -81.66 3.52 -26.32 -602.97 81.66 -3.52zm-56.02 -1282.97l33.56 768.51 -81.66 3.52 -33.56 -768.51 81.66 -3.52zm-44.55 -1020.52l23.12 529.61 -81.66 3.52 -23.12 -529.61 81.66 -3.52zm708.57 18102.89l-26.32 -602.97 81.66 -3.52 26.32 602.97 -81.66 3.52zm56.02 1282.97l-33.56 -768.51 81.66 -3.52 33.56 768.51 -81.66 3.52z"/>
    </g>
  </g>
</svg>