<?xml version="1.0" encoding="utf-8"?>
<svg viewBox="-100 -100 700 700" xmlns="http://www.w3.org/2000/svg">
  <circle cx="516.36" cy="2568.904" r="8.57" transform="matrix(0.707107, -0.707107, 0.707107, 0.707107, -2098.370117, -1380.968384)"/>
  <circle cx="685.43" cy="2568.904" r="8.57" transform="matrix(0.707107, -0.707107, 0.707107, 0.707107, -2048.850098, -1261.418579)"/>
  <circle cx="853.62" cy="2568.896" r="8.57" transform="matrix(0.160226, -0.98708, 0.98708, 0.160226, -2251.969727, 501.501434)"/>
  <polygon points="463.81 429.251 449.21 420.821 449.21 406.231 434.62 397.801 434.62 412.401 420.02 403.971 420.02 418.571 434.62 426.991 434.62 441.591 449.21 450.011 449.21 435.421 463.81 443.851 463.81 429.251"/>
  <path d="M 504.52 201.601 L 504.57 201.511 L 421.5 151.991 L 421.5 70.391 L 420.18 70.391 L 336.41 22.391 L 252.31 70.591 L 168.22 22.391 L 84.12 70.591 L 168.22 118.801 L 92.55 161.301 L 85.12 156.631 L 85.12 72.081 L 83.12 72.081 L 83.12 156.591 L 0 201.591 L 0 201.651 L 0 285.651 L 84.09 334.201 L 84.09 418.291 L 168.09 466.821 L 168.085 466.817 L 242.45 425.681 L 252.19 431.301 L 261.53 425.911 L 336.545 466.831 L 336.538 466.825 L 420.36 418.291 L 420.36 334.201 L 504.45 285.651 L 504.45 201.551 L 504.52 201.601 Z M 420.52 153.701 L 502.68 202.701 L 420.55 250.111 L 420.55 166.021 L 409.17 159.631 L 420.52 153.701 Z M 336.46 297.911 L 253.36 252.431 L 253.36 167.561 L 336.46 214.561 L 336.46 297.911 Z M 419.55 151.911 L 407.09 158.411 L 336.45 118.741 L 419.55 71.111 L 419.55 151.911 Z M 169.2 120.491 L 172.27 118.761 L 169.21 117.011 L 88.14 70.531 L 168.22 24.631 L 251.32 72.271 L 252.32 72.841 L 253.32 72.271 L 336.42 24.631 L 416.49 70.531 L 335.42 117.011 L 332.36 118.761 L 335.44 120.491 L 416.44 165.991 L 336.37 212.221 L 253.28 165.221 L 252.28 164.661 L 251.28 165.221 L 168.18 212.221 L 88.11 165.991 L 169.2 120.491 Z M 251.31 167.491 L 251.31 252.361 L 168.22 297.771 L 168.22 214.491 L 251.31 167.491 Z M 84.12 250.031 L 2.05 202.651 L 84.05 158.251 L 90.53 162.321 L 84.09 165.941 L 84.12 250.031 Z M 168.22 464.531 L 168.22 382.681 L 240.54 424.491 L 168.22 464.531 Z M 169.52 299.341 L 252.31 254.091 L 335.04 299.491 L 252.31 347.251 L 169.52 299.341 Z M 263.68 424.671 L 336.41 382.671 L 336.48 464.501 L 263.68 424.671 Z" style="stroke-linejoin: round; paint-order: stroke;"/>
  <polygon points="65.54 428.621 34.03 446.801 34.03 402.531 46.03 395.601 46.03 425.681 65.54 414.421 65.54 428.621"/>
  <polygon points="250.83 33.411 225.631 8.211 252.81 -18.969 261.291 -10.489 242.601 8.211 259.31 24.931 250.83 33.411"/>
</svg>