<?xml version="1.0" encoding="utf-8"?>
<svg viewBox="0 0 757 700" xmlns="http://www.w3.org/2000/svg">
  <path d="M 724.371 306.69 L 724.371 306.63 L 612.081 240.01 L 612.081 129.86 L 612.081 129.86 L 612.081 129.86 L 612.081 129.86 L 612.011 129.86 L 497.691 65.11 L 384.311 130.11 L 270.921 65.11 L 156.551 130.11 L 156.551 130.11 L 156.551 246.19 L 44.181 306.57 L 44.181 306.64 L 44.121 306.64 L 44.121 420.03 L 157.511 485.49 L 157.511 598.88 L 270.611 664.18 L 270.731 664.39 L 270.851 664.32 L 270.851 664.32 L 270.851 664.32 L 371.141 608.88 L 384.241 616.44 L 397.241 608.96 L 397.151 609.12 L 497.651 664.33 L 497.651 664.33 L 497.651 664.41 L 611.041 598.95 L 611.041 485.49 L 724.421 420.03 L 724.421 306.64 Z M 594.371 249.33 L 497.701 195.04 L 610.091 131.04 L 610.091 240.04 L 593.911 248.51 Z M 270.931 67.33 L 383.321 131.77 L 384.321 132.34 L 385.321 131.77 L 497.721 67.33 L 608.081 129.84 L 496.721 193.29 L 493.651 195.04 L 496.731 196.78 L 607.061 258.73 L 497.681 321.88 L 385.291 258.3 L 384.291 257.74 L 383.291 258.3 L 270.901 321.88 L 161.581 258.74 L 271.901 196.74 L 274.991 195.01 L 271.911 193.26 L 160.571 130.01 Z M 497.691 436.57 L 385.311 375.46 L 385.311 260.57 L 497.691 324.14 Z M 384.311 260.04 Z M 383.311 260.61 L 383.311 375.45 L 270.921 436.77 L 270.921 324.18 Z M 158.541 131.2 L 270.921 195.04 L 167.831 252.94 L 168.341 252.08 L 158.541 246.22 Z M 157.541 372.1 L 46.171 307.81 L 157.511 247.94 L 166.831 253.5 L 157.541 258.72 Z M 270.921 662.01 L 270.921 550.95 L 369.191 607.69 Z M 272.241 438.33 L 384.311 377.18 L 496.561 438.18 L 384.311 502.99 Z M 399.101 607.88 L 497.691 550.95 L 497.691 662.04 Z M 611.101 258.72 L 595.421 249.91 L 611.071 241.72 L 722.481 307.8 L 611.101 372.1 Z"/>
</svg>