<?xml version="1.0" encoding="utf-8"?>
<svg viewBox="0 0 505 501" xmlns="http://www.w3.org/2000/svg">
  <circle cx="516.36" cy="2568.903" r="8.57" transform="matrix(0.707107, -0.707107, 0.707107, 0.707107, -2098.370117, -1347.859619)"/>
  <circle cx="685.43" cy="2568.903" r="8.57" transform="matrix(0.707107, -0.707107, 0.707107, 0.707107, -2048.850098, -1228.309814)"/>
  <circle cx="853.62" cy="2568.897" r="8.57" transform="matrix(0.160226, -0.98708, 0.98708, 0.160226, -2251.969727, 534.610229)"/>
  <polygon points="463.81 462.36 449.21 453.93 449.21 439.34 434.62 430.91 434.62 445.51 420.02 437.08 420.02 451.68 434.62 460.1 434.62 474.7 449.21 483.12 449.21 468.53 463.81 476.96 463.81 462.36"/>
  <path d="M 504.52 234.71 L 504.57 234.62 L 421.5 185.1 L 421.5 103.5 L 420.18 103.5 L 336.41 55.5 L 252.31 103.7 L 168.22 55.5 L 84.12 103.7 L 168.22 151.91 L 92.55 194.41 L 85.12 189.74 L 85.12 105.19 L 83.12 105.19 L 83.12 189.7 L 0 234.7 L 0 234.76 L 0 318.76 L 84.09 367.31 L 84.09 451.4 L 168.09 499.93 L 168.09 500 L 242.45 458.79 L 252.19 464.41 L 261.53 459.02 L 336.27 499.92 L 336.36 499.75 L 336.36 499.95 L 420.36 451.4 L 420.36 367.31 L 504.45 318.76 L 504.45 234.66 L 504.52 234.71 Z M 420.52 186.81 L 502.68 235.81 L 420.55 283.22 L 420.55 199.13 L 409.17 192.74 L 420.52 186.81 Z M 336.46 331.02 L 253.36 285.54 L 253.36 200.67 L 336.46 247.67 L 336.46 331.02 Z M 419.55 185.02 L 407.09 191.52 L 336.45 151.85 L 419.55 104.22 L 419.55 185.02 Z M 169.2 153.6 L 172.27 151.87 L 169.21 150.12 L 88.14 103.64 L 168.22 57.74 L 251.32 105.38 L 252.32 105.95 L 253.32 105.38 L 336.42 57.74 L 416.49 103.64 L 335.42 150.12 L 332.36 151.87 L 335.44 153.6 L 416.44 199.1 L 336.37 245.33 L 253.28 198.33 L 252.28 197.77 L 251.28 198.33 L 168.18 245.33 L 88.11 199.1 L 169.2 153.6 Z M 251.31 200.6 L 251.31 285.47 L 168.22 330.88 L 168.22 247.6 L 251.31 200.6 Z M 84.12 283.14 L 2.05 235.76 L 84.05 191.36 L 90.53 195.43 L 84.09 199.05 L 84.12 283.14 Z M 168.22 497.64 L 168.22 415.79 L 240.54 457.6 L 168.22 497.64 Z M 169.52 332.45 L 252.31 287.2 L 335.04 332.6 L 252.31 380.36 L 169.52 332.45 Z M 263.68 457.78 L 336.41 415.78 L 336.48 497.61 L 263.68 457.78 Z" style="stroke-linejoin: round; paint-order: stroke;"/>
  <polygon points="65.54 461.73 34.03 479.91 34.03 435.64 46.03 428.71 46.03 458.79 65.54 447.53 65.54 461.73"/>
  <polygon points="250.83 66.52 225.631 41.32 252.81 14.14 261.291 22.62 242.601 41.32 259.31 58.04 250.83 66.52"/>
</svg>