<?xml version="1.0" encoding="utf-8"?>
<svg viewBox="0 0 1000 500" xmlns="http://www.w3.org/2000/svg">
  <defs>
    <style>.cls-1{isolation:isolate;}.cls-12,.cls-2,.cls-6,.cls-7,.cls-8{fill:none;}.cls-12,.cls-3,.cls-9{stroke:#000;stroke-miterlimit:10;}.cls-10,.cls-4{mix-blend-mode:color-burn;}.cls-5{fill:#222221;}.cls-6,.cls-7,.cls-8{stroke:#222221;stroke-linejoin:bevel;}.cls-7{stroke-dasharray:6.96 2.98;}.cls-8{stroke-dasharray:6.89 2.95;}.cls-11,.cls-9{fill:#fff;}.cls-12{stroke-width:2px;}</style>
  </defs>
  <title>MechCult4final</title>
  <g class="cls-1" transform="matrix(1, 0, 0, 1, -1225.686157, -2890.661377)">
    <g id="Layer_5" data-name="Layer 5">
      <g class="cls-4">
        <path class="cls-5" d="M2310.34,3390.6a1.81,1.81,0,0,1-.61-.1l-532.94-169.92a2,2,0,1,1,1.22-3.81l521.75,166.36-269.65-203.41a2,2,0,0,1,2.41-3.19l279,210.47a2,2,0,0,1-1.2,3.6Z" transform="translate(-187.51 -195.76)"/>
      </g>
      <g class="cls-4">
        <line class="cls-6" x1="1437.73" y1="3287.46" x2="1440.53" y2="3285.35"/>
        <line class="cls-7" x1="1442.91" y1="3283.56" x2="1839.24" y2="2985.37"/>
        <line class="cls-6" x1="1840.43" y1="2984.48" x2="1843.23" y2="2982.37"/>
      </g>
      <g class="cls-4">
        <line class="cls-6" x1="1437.73" y1="3287.46" x2="1439.48" y2="3284.42"/>
        <line class="cls-8" x1="1440.95" y1="3281.86" x2="1587.4" y2="3027.23"/>
        <line class="cls-6" x1="1588.14" y1="3025.95" x2="1589.88" y2="3022.92"/>
      </g>
      <path class="cls-5" d="M2116.73,3481.42l-537.58-265.19a2,2,0,0,0-2.85,2.14l47.26,265.19a2,2,0,0,0,1,1.4,2,2,0,0,0,1.7.12l274.21-105.89L2115,3485a2,2,0,0,0,1.77-3.59Zm-489.65-1-46.15-258.91,314.66,155.23Z" transform="translate(-187.51 -195.76)"/>
      <circle class="cls-9" cx="1437.73" cy="3288.57" r="15.14"/>
      <g class="cls-4">
        <path d="M2137.32,3491.66a5.72,5.72,0,0,1-2.38.54v-5.84a13.15,13.15,0,0,0,6-1.15h2.77v22.72h2.44v6.12h-11.3v-6.12h2.45Z" transform="translate(-187.51 -195.76)"/>
      </g>
      <g class="cls-4">
        <path d="M1559.14,3209.81v.25c0,8.71-8.1,8.25-8.1,14.47h8.34v6.12h-13.75c0-16.2,8.11-14,8.11-19.87v-.32c0-1.69,0-3.24-1.34-3.24-.82,0-1.3.9-1.3,2.38v2.08h-5.41v-2c0-4.61,2-8.24,6.71-8.24S1559.14,3204.77,1559.14,3209.81Z" transform="translate(-187.51 -195.76)"/>
      </g>
      <g class="cls-4">
        <path d="M1612.77,3527.23v.9c0,1.47.36,2.37,1.3,2.37s1.34-.93,1.34-2.37v-4c0-1-.09-2.38-1.15-2.38-.76,0-1.34.58-1.79,1.48l-2.37-2.63,4.89-8.06h-7.56V3507h13.2v4.68l-4.1,6.73a.77.77,0,0,1,.52-.21c2.4,0,3.76,2.12,3.76,5.65v4.25c0,4.64-1.94,8.2-6.74,8.2-5,0-6.7-3.56-6.7-8.2v-.9Z" transform="translate(-187.51 -195.76)"/>
        <path d="M1622.54,3535.83v-7.67H1628v7.67l-4.25,4.79h-3Z" transform="translate(-187.51 -195.76)"/>
        <path d="M1642.85,3512.25c-1,.08-2.31.15-3.43.15s-2.46-.07-3.49-.15l-.37,5.8a3.9,3.9,0,0,1,2.77-.94c2.91,0,4.76,2.41,4.76,6.66v4.9c0,4-1.76,7.66-6.71,7.66s-6.73-3.6-6.73-7.66v-1.44h5.4v.86c0,1.51.48,2.41,1.33,2.41s1.31-.93,1.31-2.41v-3.17c0-1.69-.33-2.52-1.18-2.52s-1.43.72-1.64,1.88l-4.62-1.41,1-16.27a47.4,47.4,0,0,0,6,.47,26.81,26.81,0,0,0,5.62-.54Z" transform="translate(-187.51 -195.76)"/>
      </g>
      <g class="cls-4">
        <path d="M2051.42,3152a3.82,3.82,0,0,1,3.4-1.47c3,0,4.64,2.16,4.64,5.79v4.36c0,4.57-1.76,8.24-6.71,8.24s-6.73-3.67-6.73-8.24v-13.25c0-4.57,1.76-8.24,6.73-8.24s6.71,3.67,6.71,8.2v.9h-5.4v-.9c0-1.47-.49-2.37-1.31-2.37s-1.33.9-1.33,2.41Zm2.64,5.26c0-1.62-.49-2.42-1.31-2.42s-1.33,1.37-1.33,2.45v3.39c0,1.51.48,2.41,1.33,2.41s1.31-.94,1.31-2.41Z" transform="translate(-187.51 -195.76)"/>
      </g>
      <g class="cls-4">
        <path d="M2344.88,3382.64v3.52c-2.68,9.9-4,15.41-4.16,25.27h-5.89c.21-9.72,2.25-14.61,4.7-23h-7.8v-5.83Z" transform="translate(-187.51 -195.76)"/>
      </g>
      <g class="cls-4">
        <path d="M1790.88,3183.62c0-4.43,1.58-8.06,6.56-8.06s6.52,3.63,6.52,8.06v.25a7,7,0,0,1-2.36,5.51,7.29,7.29,0,0,1,2.55,5.8v2c0,4.39-1.76,8.1-6.71,8.1s-6.74-3.71-6.74-8.1v-2a7.29,7.29,0,0,1,2.55-5.8,7,7,0,0,1-2.37-5.51Zm5.22,13.57c0,1.3.49,2.27,1.34,2.27s1.3-1,1.3-2.27V3194a3.23,3.23,0,0,0-1.3-2.73,3.19,3.19,0,0,0-1.34,2.73Zm0-11.77a2.82,2.82,0,0,0,1.31,2.34,2.71,2.71,0,0,0,1.27-2.34v-1.8c0-1.29-.45-2.23-1.27-2.23s-1.31.94-1.31,2.23Z" transform="translate(-187.51 -195.76)"/>
      </g>
      <circle class="cls-10" cx="1928.33" cy="3287.46" r="9.7"/>
      <circle class="cls-10" cx="2310.34" cy="3388.6" r="9.7" transform="translate(-1906.93 2430.4) rotate(-45)"/>
      <circle class="cls-10" cx="1777.4" cy="3218.68" r="9.7" transform="translate(-1952.02 4009.78) rotate(-76.66)"/>
      <circle class="cls-10" cx="1578.27" cy="3218.02" r="9.7" transform="translate(-2103.01 3822.38) rotate(-76.77)"/>
      <circle class="cls-10" cx="1843.23" cy="2982.37" r="9.69"/>
      <circle class="cls-10" cx="1710.13" cy="3180.41" r="23.39"/>
      <path class="cls-11" d="M1905.57,3378.44v5.26h-1.67v5.76h-5.4v-5.76h-7.34l-1-2.34c2.64-7,3.61-12,3.61-20.74h5.41c0,8.35-1.37,12.06-3.86,17.82h3.19l.73-7h4.64v7Z" transform="translate(-187.51 -195.76)"/>
    </g>
  </g>
</svg>