<?xml version="1.0" encoding="utf-8"?>
<svg viewBox="-5500 -5000 11200 11200" xmlns="http://www.w3.org/2000/svg">
  <polygon class="fil0" points="4440.111 4775.314 4140.701 4602.423 4140.701 4303.221 3841.49 4130.329 3841.49 4429.751 3542.08 4256.868 3542.08 4556.282 3841.49 4728.962 3841.49 5028.369 4140.701 5201.048 4140.701 4901.846 4440.111 5074.721"/>
  <polygon class="fil0" points="70.16 -3305.249 -446.619 -3822.038 110.769 -4379.452 284.689 -4205.538 -98.6 -3822.038 244.07 -3479.146"/>
  <polygon class="fil0" points="-3729.731 4779.932 -4375.93 5152.759 -4375.93 4244.885 -4129.84 4102.76 -4129.84 4719.634 -3729.731 4488.712"/>
  <path class="fil2" d="M 1810.85 424.851 L 3439.9 -515.689 L 1729.06 -1503.449 L 3439.91 -2491.219 L 1810.86 -3431.749 L 100.01 -2443.999 L -1610.92 -3431.799 L -3239.99 -2491.269 L -1529.07 -1503.449 L -3239.9 -515.699 L -1610.86 424.851 L 99.91 -562.869 L 1810.85 424.851 Z M 3562.71 -2514.779 L 3562.71 -827.719 L 5273.55 160.041 L 5273.55 1893.701 L 3562.53 2881.571 L 3562.5 4568.091 L 1810.76 5579.451 L 350.21 4736.191 L 100 4880.651 L -150.28 4736.161 L -1610.84 5579.411 L -3362.51 4568.091 L -3362.53 2881.571 L -5073.55 1893.701 L -5073.55 160.081 L -3362.71 -827.709 L -3362.71 -2514.689 L -1610.76 -3526.159 L 100.01 -2538.449 L 1810.86 -3526.209 L 3562.71 -2514.779 Z M 3480.71 -828.729 L 3480.71 -2420.339 L 1892.66 -1503.449 L 3262.15 -712.769 L 3480.71 -828.729 Z M -3280.71 -2420.329 L -3280.71 -828.729 L -3062.16 -712.779 L -1692.66 -1503.449 L -3280.71 -2420.329 Z M 5150.75 183.591 L 3520.87 -757.429 L 3345.74 -664.509 L 3562.7 -539.249 L 3562.7 1100.451 L 5150.75 183.591 Z M -3145.75 -664.519 L -3320.87 -757.429 L -4950.74 183.591 L -3362.7 1100.451 L -3362.7 -539.259 L -3145.75 -664.519 Z M 1770 5461.461 L 1770.02 3916.471 L 432.01 4688.971 L 1770 5461.461 Z M 100 3099.611 L 1729.06 2158.681 L 100.01 1218.151 L -1529.05 2158.691 L 100 3099.611 Z M 1770.01 2087.871 L 1770.02 495.641 L 140.83 -444.889 L 140.84 1147.271 L 1770.01 2087.871 Z M -1570.01 5461.571 L -231.91 4689.031 L -1570.02 3916.471 L -1570.01 5461.571 Z M -1570.03 495.721 L -1570.01 2087.881 L 59.18 1147.271 L 59.17 -444.889 L -1570.03 495.721 Z"/>
</svg>