<?xml version="1.0" encoding="utf-8"?>
<svg viewBox="-7500 -6700 13900 13900" xmlns="http://www.w3.org/2000/svg">
  <path class="fil2" d="M 1160.85 -328.165 L 2830.82 -1292.325 L 1119.97 -2280.085 L 2830.82 -3267.855 L 1160.86 -4232.005 L -550 -3244.255 L -2260.88 -4232.035 L -3930.86 -3267.875 L -2219.98 -2280.085 L -3930.81 -1292.325 L -2260.86 -328.165 L -550.05 -1315.915 L 1160.85 -328.165 Z M 2880.55 -3286.355 L 2883.26 -3284.795 L 2892.21 -3279.625 L 2892.21 -3267.855 L 2892.21 -3256.095 L 2892.21 -1592.575 L 4603.05 -604.815 L 4603.05 1105.285 L 2892.11 2093.105 L 2892.08 3779.665 L 1160.81 4779.225 L -299.79 3935.935 L -550.01 4080.405 L -800.24 3935.935 L -2260.83 4779.205 L -3992.09 3779.665 L -3992.11 2093.105 L -5703.05 1105.285 L -5703.05 -604.775 L -3992.21 -1592.565 L -3992.21 -3256.085 L -3992.21 -3267.855 L -3992.21 -3279.585 L -3983.62 -3284.545 L -3980.19 -3286.525 L -2260.8 -4279.205 L -549.99 -3291.465 L 1160.86 -4279.225 L 2880.55 -3286.355 Z M 2851.21 -1593.085 L 2851.21 -3232.425 L 1201.75 -2280.085 L 2611.73 -1466.025 L 2851.21 -1593.085 Z M -3951.21 -3232.415 L -3951.21 -1593.085 L -3711.74 -1466.035 L -2301.75 -2280.085 L -3951.21 -3232.415 Z M 4541.65 -593.055 L 2871.28 -1557.435 L 2653.51 -1441.905 L 2892.2 -1304.105 L 2892.2 359.275 L 4541.65 -593.055 Z M -3753.53 -1441.915 L -3971.28 -1557.435 L -5641.65 -593.055 L -3992.2 359.275 L -3992.2 -1304.115 L -3753.53 -1441.915 Z M 1140.42 4720.235 L 1140.44 3104.425 L -258.9 3912.335 L 1140.42 4720.235 Z M -550 2346.585 L 1119.97 1382.045 L -549.99 417.895 L -2219.96 1382.045 L -550 2346.585 Z M 1140.43 1346.645 L 1140.44 -292.785 L -529.59 -1256.935 L -529.58 382.465 L 1140.43 1346.645 Z M -2240.43 4720.295 L -841.05 3912.375 L -2240.44 3104.425 L -2240.43 4720.295 Z M -2240.45 -292.745 L -2240.43 1346.655 L -570.4 382.465 L -570.41 -1256.935 L -2240.45 -292.745 Z"/>
</svg>