<?xml version="1.0" encoding="utf-8"?>
<svg viewBox="-9000 -5300 19000 10500" xmlns="http://www.w3.org/2000/svg">
  <path class="fil0" d="M 8058.053 2425.697 L 7476.633 2089.987 L 7476.633 1508.587 L 6895.443 1173.087 L 6895.443 1754.277 L 5732.653 1083.057 L 5732.653 2811.657 L 5151.463 2811.657 L 5151.463 -3582.873 L 4570.063 -3582.873 L 4570.063 3393.057 L 6314.043 3393.057 L 6314.063 2000.167 L 6895.443 2335.667 L 6895.443 2917.067 L 7476.633 3252.577 L 7476.633 2671.387 L 8058.053 3006.897 L 8058.053 2425.697 Z M -5314.047 3393.057 L -5895.467 3393.057 L -5895.487 -1788.943 L -6476.657 -2124.443 L -6476.657 3392.847 L -7058.057 3392.847 L -7058.057 -3041.553 L -5314.047 -2035.763 L -5314.047 -1620.893 L -4151.477 -2292.313 L -4151.477 3392.847 L -4732.877 3392.847 L -4732.877 -1375.203 L -5314.047 -1039.703 L -5314.047 3393.057 Z M 3407.503 3393.057 L 3988.893 3393.057 L 3988.893 -3582.873 L 3407.503 -3582.873 L 3407.503 2230.317 L 2826.093 2566.007 L 2826.093 -676.303 L 2244.693 -676.303 L 2244.693 3482.887 L 3407.503 2811.637 L 3407.503 3393.057 Z M 1082.103 -1257.693 L 2826.083 -1257.693 L 2826.083 -1839.093 L 1663.503 -1839.093 L 1663.503 -3001.473 L 2244.693 -3001.473 L 2244.693 -2420.293 L 2826.093 -2420.293 L 2826.093 -3582.883 L 1082.103 -3582.873 L 1082.103 -1257.693 Z M 500.913 -94.903 L 1082.103 -94.903 L 1082.103 3393.047 L 1663.503 3393.047 L 1663.503 -676.313 L 500.913 -676.303 L 500.913 -1839.103 L -80.487 -1839.103 L -80.487 2230.257 L 500.913 2230.257 L 500.913 -94.903 Z M 500.933 3393.057 L 500.933 2811.657 L -661.657 2811.657 L -661.657 -3001.473 L -80.487 -3001.473 L -80.487 -2420.293 L 500.913 -2420.293 L 500.933 -3582.873 L -1243.047 -3582.873 L -1243.057 3393.057 L 500.933 3393.057 Z M -1824.467 3393.057 L -1824.447 1067.677 L -2405.847 1067.677 L -2405.847 2811.657 L -2987.057 2811.657 L -2987.057 -224.343 L -1824.467 446.897 L -1824.447 -3582.883 L -3568.427 -3582.873 L -3568.447 3393.057 L -1824.467 3393.057 Z M -2987.057 -3001.483 L -2405.847 -3001.483 L -2405.847 -470.163 L -2987.057 -805.743 L -2987.057 -3001.483 Z"/>
</svg>