<?xml version="1.0" encoding="utf-8"?>
<svg viewBox="-9300 -10800 20800 20800" xmlns="http://www.w3.org/2000/svg">
  <polygon class="fil0" points="5439.601 3082.813 5140.191 2909.922 5140.191 2610.719 4840.98 2437.828 4840.98 2737.25 4541.57 2564.368 4541.57 2863.782 4840.98 3036.461 4840.98 3335.868 5140.191 3508.547 5140.191 3209.344 5439.601 3382.219"/>
  <polygon class="fil0" points="1069.65 -4997.75 552.87 -5514.54 1110.259 -6071.953 1284.179 -5898.04 900.89 -5514.54 1243.56 -5171.648"/>
  <polygon class="fil0" points="-2730.241 3087.43 -3376.44 3460.258 -3376.44 2552.383 -3130.35 2410.258 -3130.35 3027.133 -2730.241 2796.211"/>
  <path class="fil2" d="M 2810.34 -1267.65 L 4439.39 -2208.19 L 2728.55 -3195.95 L 4439.4 -4183.72 L 2810.35 -5124.25 L 1099.5 -4136.5 L -611.43 -5124.3 L -2240.5 -4183.77 L -529.58 -3195.95 L -2240.41 -2208.2 L -611.37 -1267.65 L 1099.4 -2255.37 L 2810.34 -1267.65 Z M 4562.2 -4207.28 L 4562.2 -2520.22 L 6273.04 -1532.46 L 6273.04 201.2 L 4562.02 1189.07 L 4561.99 2875.59 L 2810.25 3886.95 L 1349.7 3043.69 L 1099.49 3188.15 L 849.21 3043.66 L -611.35 3886.91 L -2363.02 2875.59 L -2363.04 1189.07 L -4074.06 201.2 L -4074.06 -1532.42 L -2363.22 -2520.21 L -2363.22 -4207.19 L -611.27 -5218.66 L 1099.5 -4230.95 L 2810.35 -5218.71 L 4562.2 -4207.28 Z M 4480.2 -2521.23 L 4480.2 -4112.84 L 2892.15 -3195.95 L 4261.64 -2405.27 L 4480.2 -2521.23 Z M -2281.22 -4112.83 L -2281.22 -2521.23 L -2062.67 -2405.28 L -693.17 -3195.95 L -2281.22 -4112.83 Z M 6150.24 -1508.91 L 4520.36 -2449.93 L 4345.23 -2357.01 L 4562.19 -2231.75 L 4562.19 -592.05 L 6150.24 -1508.91 Z M -2146.26 -2357.02 L -2321.38 -2449.93 L -3951.25 -1508.91 L -2363.21 -592.05 L -2363.21 -2231.76 L -2146.26 -2357.02 Z M 2769.49 3768.96 L 2769.51 2223.97 L 1431.5 2996.47 L 2769.49 3768.96 Z M 1099.49 1407.11 L 2728.55 466.18 L 1099.5 -474.35 L -529.56 466.19 L 1099.49 1407.11 Z M 2769.5 395.37 L 2769.51 -1196.86 L 1140.32 -2137.39 L 1140.33 -545.23 L 2769.5 395.37 Z M -570.52 3769.07 L 767.58 2996.53 L -570.53 2223.97 L -570.52 3769.07 Z M -570.54 -1196.78 L -570.52 395.38 L 1058.67 -545.23 L 1058.66 -2137.39 L -570.54 -1196.78 Z"/>
  <path class="fil2" d="M 1504.57 9803.19 L 1481.45 9273.58 L 1563.11 9270.06 L 1586.23 9799.67 L 1504.57 9803.19 Z M 8034.45 5365.27 L 8948.45 6132.21 L 8895.93 6194.99 L 7981.93 5428.05 L 8034.45 5365.27 Z M -4665.27 6534.45 L -5432.21 7448.45 L -5494.99 7395.93 L -4728.05 6481.93 L -4665.27 6534.45 Z M -6695.93 -6994.99 L -5863.31 -6296.33 L -5915.83 -6233.55 L -6748.45 -6932.21 L -6695.93 -6994.99 Z M 7694.99 -8195.93 L 6996.33 -7363.31 L 6933.55 -7415.83 L 7632.21 -8248.45 L 7694.99 -8195.93 Z M -5482.81 -5977.06 L -4466.07 -5123.91 L -4518.59 -5061.13 L -5535.33 -5914.28 L -5482.81 -5977.06 Z M 6677.06 -6982.81 L 5823.91 -5966.07 L 5761.13 -6018.59 L 6614.28 -7035.33 L 6677.06 -6982.81 Z M 6718.59 4261.13 L 7642.8 5036.64 L 7590.28 5099.42 L 6666.07 4323.91 L 6718.59 4261.13 Z M -3561.13 5218.59 L -4336.64 6142.8 L -4399.42 6090.28 L -3623.91 5166.07 L -3561.13 5218.59 Z M 8510.49 4739.04 L 9487.86 5423.41 L 9441.1 5490.35 L 8463.73 4805.98 L 8510.49 4739.04 Z M -4039.04 7010.49 L -4723.41 7987.86 L -4790.35 7941.1 L -4105.98 6963.73 L -4039.04 7010.49 Z M -7241.1 -6290.35 L -6350.75 -5666.91 L -6397.51 -5599.97 L -7287.86 -6223.41 L -7241.1 -6290.35 Z M 6990.35 -8741.1 L 6366.91 -7850.75 L 6299.97 -7897.51 L 6923.41 -8787.86 L 6990.35 -8741.1 Z M -5943.88 -5382.02 L -4856.65 -4620.73 L -4903.41 -4553.79 L -5990.64 -5315.08 L -5943.88 -5382.02 Z M 6082.02 -7443.88 L 5320.73 -6356.65 L 5253.79 -6403.41 L 6015.08 -7490.64 L 6082.02 -7443.88 Z M 7103.41 3753.79 L 8091.69 4445.8 L 8044.93 4512.74 L 7056.65 3820.73 L 7103.41 3753.79 Z M -3053.79 5603.41 L -3745.8 6591.69 L -3812.74 6544.93 L -3120.73 5556.65 L -3053.79 5603.41 Z M 8930.16 4073.61 L 9963.46 4670.18 L 9922.78 4740.96 L 8889.48 4144.39 L 8930.16 4073.61 Z M -3373.61 7430.16 L -3970.18 8463.46 L -4040.96 8422.78 L -3444.39 7389.48 L -3373.61 7430.16 Z M -7722.78 -5540.96 L -6781.47 -4997.5 L -6822.15 -4926.72 L -7763.46 -5470.18 L -7722.78 -5540.96 Z M 6240.96 -9222.78 L 5697.5 -8281.47 L 5626.72 -8322.15 L 6170.18 -9263.46 L 6240.96 -9222.78 Z M -6351.16 -4749.15 L -5201.72 -4085.52 L -5242.72 -4014.74 L -6392.16 -4678.37 L -6351.16 -4749.15 Z M 5449.15 -7851.16 L 4785.52 -6701.72 L 4714.74 -6742.72 L 5378.37 -7892.16 L 5449.15 -7851.16 Z M 7442.72 3214.74 L 8487.55 3817.98 L 8446.55 3888.76 L 7401.72 3285.52 L 7442.72 3214.74 Z M -2514.74 5942.72 L -3117.98 6987.55 L -3188.76 6946.55 L -2585.52 5901.72 L -2514.74 5942.72 Z M 9290.37 3374.02 L 10371.73 3878.27 L 10337.15 3952.57 L 9255.79 3448.32 L 9290.37 3374.02 Z M -2674.02 7790.37 L -3178.27 8871.73 L -3252.57 8837.15 L -2748.32 7755.79 L -2674.02 7790.37 Z M -8137.15 -4752.57 L -7152.07 -4293.22 L -7186.65 -4218.92 L -8171.73 -4678.27 L -8137.15 -4752.57 Z M 5452.57 -9637.15 L 4993.22 -8652.07 L 4918.92 -8686.65 L 5378.27 -9671.73 L 5452.57 -9637.15 Z M -6701.91 -4083.3 L -5499 -3522.38 L -5533.58 -3448.08 L -6736.49 -4009 L -6701.91 -4083.3 Z M 4783.3 -8201.91 L 4222.38 -6999 L 4148.08 -7033.58 L 4709 -8236.49 L 4783.3 -8201.91 Z M 7733.58 2648.08 L 8827.01 3157.95 L 8792.43 3232.25 L 7699 2722.38 L 7733.58 2648.08 Z M -1948.08 6233.58 L -2457.95 7327.01 L -2532.25 7292.43 L -2022.38 6199 L -1948.08 6233.58 Z M 9588.08 2645.91 L 10709.27 3053.99 L 10681.41 3130.85 L 9560.22 2722.77 L 9588.08 2645.91 Z M -1945.91 8088.08 L -2353.99 9209.27 L -2430.85 9181.41 L -2022.77 8060.22 L -1945.91 8088.08 Z M -8481.41 -3930.85 L -7460.04 -3559.1 L -7487.9 -3482.24 L -8509.27 -3853.99 L -8481.41 -3930.85 Z M 4630.85 -9981.41 L 4259.1 -8960.04 L 4182.24 -8987.9 L 4553.99 -10009.27 L 4630.85 -9981.41 Z M -6993.3 -3389.22 L -5746.08 -2935.27 L -5773.94 -2858.41 L -7021.16 -3312.36 L -6993.3 -3389.22 Z M 4089.22 -8493.3 L 3635.27 -7246.08 L 3558.41 -7273.94 L 4012.36 -8521.16 L 4089.22 -8493.3 Z M 7973.94 2058.41 L 9107.65 2471.05 L 9079.79 2547.91 L 7946.08 2135.27 L 7973.94 2058.41 Z M -1358.41 6473.94 L -1771.05 7607.65 L -1847.91 7579.79 L -1435.27 6446.08 L -1358.41 6473.94 Z M 9821.29 1894.48 L 10973.78 2203.29 L 10952.64 2282.39 L 9800.15 1973.58 L 9821.29 1894.48 Z M -1194.48 8321.29 L -1503.29 9473.78 L -1582.39 9452.64 L -1273.58 8300.15 L -1194.48 8321.29 Z M -8752.64 -3082.39 L -7702.76 -2801.07 L -7723.9 -2721.97 L -8773.78 -3003.29 L -8752.64 -3082.39 Z M 3782.39 -10252.64 L 3501.07 -9202.76 L 3421.97 -9223.9 L 3703.29 -10273.78 L 3782.39 -10252.64 Z M -7222.98 -2672.52 L -5940.95 -2329 L -5962.09 -2249.9 L -7244.12 -2593.42 L -7222.98 -2672.52 Z M 3372.52 -8722.98 L 3029 -7440.95 L 2949.9 -7462.09 L 3293.42 -8744.12 L 3372.52 -8722.98 Z M 8162.09 1449.9 L 9327.45 1762.16 L 9306.31 1841.26 L 8140.95 1529 L 8162.09 1449.9 Z M -749.9 6662.09 L -1062.16 7827.45 L -1141.26 7806.31 L -829 6640.95 L -749.9 6662.09 Z M 9988.05 1125.61 L 11163.07 1332.8 L 11148.97 1413.5 L 9973.95 1206.31 L 9988.05 1125.61 Z M -425.61 8488.05 L -632.8 9663.07 L -713.5 9648.97 L -506.31 8473.95 L -425.61 8488.05 Z M -8948.97 -2213.5 L -7878.56 -2024.76 L -7892.66 -1944.06 L -8963.07 -2132.8 L -8948.97 -2213.5 Z M 2913.5 -10448.97 L 2724.76 -9378.56 L 2644.06 -9392.66 L 2832.8 -10463.07 L 2913.5 -10448.97 Z M -7389.41 -1938.5 L -6082.31 -1708.03 L -6096.41 -1627.33 L -7403.51 -1857.8 L -7389.41 -1938.5 Z M 2638.5 -8889.41 L 2408.03 -7582.31 L 2327.33 -7596.41 L 2557.8 -8903.51 L 2638.5 -8889.41 Z M 8296.41 827.33 L 9484.55 1036.83 L 9470.45 1117.53 L 8282.31 908.03 L 8296.41 827.33 Z M -127.33 6796.41 L -336.83 7984.55 L -417.53 7970.45 L -208.03 6782.31 L -127.33 6796.41 Z M 10087.2 345.14 L 11275.81 449.13 L 11268.77 530.79 L 10080.16 426.8 L 10087.2 345.14 Z M 354.86 8587.2 L 250.87 9775.81 L 169.21 9768.77 L 273.2 8580.16 L 354.86 8587.2 Z M -9068.77 -1330.79 L -7985.99 -1236.06 L -7993.03 -1154.4 L -9075.81 -1249.13 L -9068.77 -1330.79 Z M 2030.79 -10568.77 L 1936.06 -9485.99 L 1854.4 -9493.03 L 1949.13 -10575.81 L 2030.79 -10568.77 Z M -7491.18 -1192.77 L -6168.97 -1077.09 L -6176.01 -995.43 L -7498.22 -1111.11 L -7491.18 -1192.77 Z M 1892.77 -8991.18 L 1777.09 -7668.97 L 1695.43 -7676.01 L 1811.11 -8998.22 L 1892.77 -8991.18 Z M 8376.01 195.43 L 9577.89 300.58 L 9570.85 382.24 L 8368.97 277.09 L 8376.01 195.43 Z M 504.57 6876.01 L 399.42 8077.89 L 317.76 8070.85 L 422.91 6868.97 L 504.57 6876.01 Z M 7447.71 -6805.67 L 8291.39 -7649.35 L 8349.35 -7591.39 L 7505.67 -6747.71 L 7447.71 -6805.67 Z M 7505.67 5947.71 L 8349.35 6791.39 L 8291.39 6849.35 L 7447.71 6005.67 L 7505.67 5947.71 Z M -6149.35 6791.39 L -5380.78 6022.82 L -5322.82 6080.78 L -6091.39 6849.35 L -6149.35 6791.39 Z M -6091.39 -7649.35 L -5322.82 -6880.78 L -5380.78 -6822.82 L -6149.35 -7591.39 L -6091.39 -7649.35 Z M -5029.56 5671.6 L -4091.05 4733.09 L -4033.09 4791.05 L -4971.6 5729.56 L -5029.56 5671.6 Z M -4971.6 -6529.56 L -4033.09 -5591.05 L -4091.05 -5533.09 L -5029.56 -6471.6 L -4971.6 -6529.56 Z M 6233.09 -5591.05 L 7086.19 -6444.15 L 7144.15 -6386.19 L 6291.05 -5533.09 L 6233.09 -5591.05 Z M 6291.05 4733.09 L 7144.15 5586.19 L 7086.19 5644.15 L 6233.09 4791.05 L 6291.05 4733.09 Z M 7981.93 -6228.05 L 8895.93 -6994.99 L 8948.45 -6932.21 L 8034.45 -6165.27 L 7981.93 -6228.05 Z M 6928.05 6481.93 L 7694.99 7395.93 L 7632.21 7448.45 L 6865.27 6534.45 L 6928.05 6481.93 Z M -6748.45 6132.21 L -5915.83 5433.55 L -5863.31 5496.33 L -6695.93 6194.99 L -6748.45 6132.21 Z M -5432.21 -8248.45 L -4733.55 -7415.83 L -4796.33 -7363.31 L -5494.99 -8195.93 L -5432.21 -8248.45 Z M -5535.33 5114.28 L -4518.59 4261.13 L -4466.07 4323.91 L -5482.81 5177.06 L -5535.33 5114.28 Z M -4414.28 -7035.33 L -3561.13 -6018.59 L -3623.91 -5966.07 L -4477.06 -6982.81 L -4414.28 -7035.33 Z M 6666.07 -5123.91 L 7590.28 -5899.42 L 7642.8 -5836.64 L 6718.59 -5061.13 L 6666.07 -5123.91 Z M 5823.91 5166.07 L 6599.42 6090.28 L 6536.64 6142.8 L 5761.13 5218.59 L 5823.91 5166.07 Z M 8463.73 -5605.98 L 9441.1 -6290.35 L 9487.86 -6223.41 L 8510.49 -5539.04 L 8463.73 -5605.98 Z M 6305.98 6963.73 L 6990.35 7941.1 L 6923.41 7987.86 L 6239.04 7010.49 L 6305.98 6963.73 Z M -7287.86 5423.41 L -6397.51 4799.97 L -6350.75 4866.91 L -7241.1 5490.35 L -7287.86 5423.41 Z M -4723.41 -8787.86 L -4099.97 -7897.51 L -4166.91 -7850.75 L -4790.35 -8741.1 L -4723.41 -8787.86 Z M -5990.64 4515.08 L -4903.41 3753.79 L -4856.65 3820.73 L -5943.88 4582.02 L -5990.64 4515.08 Z M -3815.08 -7490.64 L -3053.79 -6403.41 L -3120.73 -6356.65 L -3882.02 -7443.88 L -3815.08 -7490.64 Z M 7056.65 -4620.73 L 8044.93 -5312.74 L 8091.69 -5245.8 L 7103.41 -4553.79 L 7056.65 -4620.73 Z M 5320.73 5556.65 L 6012.74 6544.93 L 5945.8 6591.69 L 5253.79 5603.41 L 5320.73 5556.65 Z M 8889.48 -4944.39 L 9922.78 -5540.96 L 9963.46 -5470.18 L 8930.16 -4873.61 L 8889.48 -4944.39 Z M 5644.39 7389.48 L 6240.96 8422.78 L 6170.18 8463.46 L 5573.61 7430.16 L 5644.39 7389.48 Z M -7763.46 4670.18 L -6822.15 4126.72 L -6781.47 4197.5 L -7722.78 4740.96 L -7763.46 4670.18 Z M -3970.18 -9263.46 L -3426.72 -8322.15 L -3497.5 -8281.47 L -4040.96 -9222.78 L -3970.18 -9263.46 Z M -6392.16 3878.37 L -5242.72 3214.74 L -5201.72 3285.52 L -6351.16 3949.15 L -6392.16 3878.37 Z M -3178.37 -7892.16 L -2514.74 -6742.72 L -2585.52 -6701.72 L -3249.15 -7851.16 L -3178.37 -7892.16 Z M 7401.72 -4085.52 L 8446.55 -4688.76 L 8487.55 -4617.98 L 7442.72 -4014.74 L 7401.72 -4085.52 Z M 4785.52 5901.72 L 5388.76 6946.55 L 5317.98 6987.55 L 4714.74 5942.72 L 4785.52 5901.72 Z M 9255.79 -4248.32 L 10337.15 -4752.57 L 10371.73 -4678.27 L 9290.37 -4174.02 L 9255.79 -4248.32 Z M 4948.32 7755.79 L 5452.57 8837.15 L 5378.27 8871.73 L 4874.02 7790.37 L 4948.32 7755.79 Z M -8171.73 3878.27 L -7186.65 3418.92 L -7152.07 3493.22 L -8137.15 3952.57 L -8171.73 3878.27 Z M -3178.27 -9671.73 L -2718.92 -8686.65 L -2793.22 -8652.07 L -3252.57 -9637.15 L -3178.27 -9671.73 Z M -6736.49 3209 L -5533.58 2648.08 L -5499 2722.38 L -6701.91 3283.3 L -6736.49 3209 Z M -2509 -8236.49 L -1948.08 -7033.58 L -2022.38 -6999 L -2583.3 -8201.91 L -2509 -8236.49 Z M 7699 -3522.38 L 8792.43 -4032.25 L 8827.01 -3957.95 L 7733.58 -3448.08 L 7699 -3522.38 Z M 4222.38 6199 L 4732.25 7292.43 L 4657.95 7327.01 L 4148.08 6233.58 L 4222.38 6199 Z M 9560.22 -3522.77 L 10681.41 -3930.85 L 10709.27 -3853.99 L 9588.08 -3445.91 L 9560.22 -3522.77 Z M 4222.77 8060.22 L 4630.85 9181.41 L 4553.99 9209.27 L 4145.91 8088.08 L 4222.77 8060.22 Z M -8509.27 3053.99 L -7487.9 2682.24 L -7460.04 2759.1 L -8481.41 3130.85 L -8509.27 3053.99 Z M -2353.99 -10009.27 L -1982.24 -8987.9 L -2059.1 -8960.04 L -2430.85 -9981.41 L -2353.99 -10009.27 Z M -7021.16 2512.36 L -5773.94 2058.41 L -5746.08 2135.27 L -6993.3 2589.22 L -7021.16 2512.36 Z M -1812.36 -8521.16 L -1358.41 -7273.94 L -1435.27 -7246.08 L -1889.22 -8493.3 L -1812.36 -8521.16 Z M 7946.08 -2935.27 L 9079.79 -3347.91 L 9107.65 -3271.05 L 7973.94 -2858.41 L 7946.08 -2935.27 Z M 3635.27 6446.08 L 4047.91 7579.79 L 3971.05 7607.65 L 3558.41 6473.94 L 3635.27 6446.08 Z M 9800.15 -2773.58 L 10952.64 -3082.39 L 10973.78 -3003.29 L 9821.29 -2694.48 L 9800.15 -2773.58 Z M 3473.58 8300.15 L 3782.39 9452.64 L 3703.29 9473.78 L 3394.48 8321.29 L 3473.58 8300.15 Z M -8773.78 2203.29 L -7723.9 1921.97 L -7702.76 2001.07 L -8752.64 2282.39 L -8773.78 2203.29 Z M -1503.29 -10273.78 L -1221.97 -9223.9 L -1301.07 -9202.76 L -1582.39 -10252.64 L -1503.29 -10273.78 Z M -7244.12 1793.42 L -5962.09 1449.9 L -5940.95 1529 L -7222.98 1872.52 L -7244.12 1793.42 Z M -1093.42 -8744.12 L -749.9 -7462.09 L -829 -7440.95 L -1172.52 -8722.98 L -1093.42 -8744.12 Z M 8140.95 -2329 L 9306.31 -2641.26 L 9327.45 -2562.16 L 8162.09 -2249.9 L 8140.95 -2329 Z M 3029 6640.95 L 3341.26 7806.31 L 3262.16 7827.45 L 2949.9 6662.09 L 3029 6640.95 Z M 9973.95 -2006.31 L 11148.97 -2213.5 L 11163.07 -2132.8 L 9988.05 -1925.61 L 9973.95 -2006.31 Z M 2706.31 8473.95 L 2913.5 9648.97 L 2832.8 9663.07 L 2625.61 8488.05 L 2706.31 8473.95 Z M -8963.07 1332.8 L -7892.66 1144.06 L -7878.56 1224.76 L -8948.97 1413.5 L -8963.07 1332.8 Z M -632.8 -10463.07 L -444.06 -9392.66 L -524.76 -9378.56 L -713.5 -10448.97 L -632.8 -10463.07 Z M -7403.51 1057.8 L -6096.41 827.33 L -6082.31 908.03 L -7389.41 1138.5 L -7403.51 1057.8 Z M -357.8 -8903.51 L -127.33 -7596.41 L -208.03 -7582.31 L -438.5 -8889.41 L -357.8 -8903.51 Z M 8282.31 -1708.03 L 9470.45 -1917.53 L 9484.55 -1836.83 L 8296.41 -1627.33 L 8282.31 -1708.03 Z M 2408.03 6782.31 L 2617.53 7970.45 L 2536.83 7984.55 L 2327.33 6796.41 L 2408.03 6782.31 Z M 10080.16 -1226.8 L 11268.77 -1330.79 L 11275.81 -1249.13 L 10087.2 -1145.14 L 10080.16 -1226.8 Z M 1926.8 8580.16 L 2030.79 9768.77 L 1949.13 9775.81 L 1845.14 8587.2 L 1926.8 8580.16 Z M -9075.81 449.13 L -7993.03 354.4 L -7985.99 436.06 L -9068.77 530.79 L -9075.81 449.13 Z M 250.87 -10575.81 L 345.6 -9493.03 L 263.94 -9485.99 L 169.21 -10568.77 L 250.87 -10575.81 Z M -7498.22 311.11 L -6176.01 195.43 L -6168.97 277.09 L -7491.18 392.77 L -7498.22 311.11 Z M 388.89 -8998.22 L 504.57 -7676.01 L 422.91 -7668.97 L 307.23 -8991.18 L 388.89 -8998.22 Z M 8368.97 -1077.09 L 9570.85 -1182.24 L 9577.89 -1100.58 L 8376.01 -995.43 L 8368.97 -1077.09 Z M 1777.09 6868.97 L 1882.24 8070.85 L 1800.58 8077.89 L 1695.43 6876.01 L 1777.09 6868.97 Z M 10118 -441 L 11311.15 -441 L 11311.15 -359 L 10118 -359 L 10118 -441 Z M 1141 8618 L 1141 9811.15 L 1059 9811.15 L 1059 8618 L 1141 8618 Z M -9111.15 -441 L -8024.23 -441 L -8024.23 -359 L -9111.15 -359 L -9111.15 -441 Z M 1141 -10611.15 L 1141 -9524.23 L 1059 -9524.23 L 1059 -10611.15 L 1141 -10611.15 Z M -7527.53 -441 L -6200.27 -441 L -6200.27 -359 L -7527.53 -359 L -7527.53 -441 Z M 1141 -9027.53 L 1141 -7700.27 L 1059 -7700.27 L 1059 -9027.53 L 1141 -9027.53 Z M 8400.27 -441 L 9606.74 -441 L 9606.74 -359 L 8400.27 -359 L 8400.27 -441 Z M 1141 6900.27 L 1141 8106.74 L 1059 8106.74 L 1059 6900.27 L 1141 6900.27 Z M 714.34 7496.18 L 740.67 6893.21 L 822.33 6896.73 L 796 7499.7 L 714.34 7496.18 Z M 658.33 8779.15 L 691.87 8010.64 L 773.53 8014.16 L 739.99 8782.67 L 658.33 8779.15 Z M 613.76 9799.67 L 636.89 9270.06 L 718.55 9273.58 L 695.42 9803.19 L 613.76 9799.67 Z M 1485.66 -8296.18 L 1459.33 -7693.21 L 1377.67 -7696.73 L 1404 -8299.7 L 1485.66 -8296.18 Z M 1541.67 -9579.15 L 1508.13 -8810.64 L 1426.47 -8814.16 L 1460.01 -9582.67 L 1541.67 -9579.15 Z M 1586.24 -10599.67 L 1563.11 -10070.06 L 1481.45 -10073.58 L 1504.58 -10603.19 L 1586.24 -10599.67 Z M 27.62 7432.55 L 106.4 6834.17 L 187.42 6844.73 L 108.64 7443.11 L 27.62 7432.55 Z M -140 8705.76 L -39.6 7943.1 L 41.42 7953.66 L -58.98 8716.32 L -140 8705.76 Z M -273.34 9718.51 L -204.14 9192.93 L -123.12 9203.49 L -192.32 9729.07 L -273.34 9718.51 Z M 2172.38 -8232.55 L 2093.6 -7634.17 L 2012.58 -7644.73 L 2091.36 -8243.11 L 2172.38 -8232.55 Z M 2340 -9505.76 L 2239.6 -8743.1 L 2158.58 -8753.66 L 2258.98 -9516.32 L 2340 -9505.76 Z M 2473.34 -10518.51 L 2404.14 -9992.93 L 2323.12 -10003.49 L 2392.32 -10529.07 L 2473.34 -10518.51 Z M -650.93 7309.26 L -520.29 6720.03 L -440.55 6737.65 L -571.19 7326.88 L -650.93 7309.26 Z M -928.87 8563.02 L -762.38 7812.01 L -682.64 7829.63 L -849.13 8580.64 L -928.87 8563.02 Z M -1149.97 9560.29 L -1035.23 9042.74 L -955.49 9060.36 L -1070.23 9577.91 L -1149.97 9560.29 Z M 2850.93 -8109.26 L 2720.29 -7520.03 L 2640.55 -7537.65 L 2771.19 -8126.88 L 2850.93 -8109.26 Z M 3128.87 -9363.02 L 2962.38 -8612.01 L 2882.64 -8629.63 L 3049.13 -9380.64 L 3128.87 -9363.02 Z M 3349.97 -10360.29 L 3235.23 -9842.74 L 3155.49 -9860.36 L 3270.23 -10377.91 L 3349.97 -10360.29 Z M -1316.29 7127.4 L -1134.8 6551.8 L -1056.66 6576.14 L -1238.15 7151.74 L -1316.29 7127.4 Z M -1702.45 8352.16 L -1471.14 7618.52 L -1393 7642.86 L -1624.31 8376.5 L -1702.45 8352.16 Z M -2009.63 9326.37 L -1850.21 8820.8 L -1772.07 8845.14 L -1931.49 9350.71 L -2009.63 9326.37 Z M 3516.29 -7927.4 L 3334.8 -7351.8 L 3256.66 -7376.14 L 3438.15 -7951.74 L 3516.29 -7927.4 Z M 3902.45 -9152.16 L 3671.14 -8418.52 L 3593 -8442.86 L 3824.31 -9176.5 L 3902.45 -9152.16 Z M 4209.63 -10126.37 L 4050.21 -9620.8 L 3972.07 -9645.14 L 4131.49 -10150.71 L 4209.63 -10126.37 Z M -1963.08 6888.17 L -1732.11 6330.57 L -1656.53 6361.63 L -1887.5 6919.23 L -1963.08 6888.17 Z M -2454.52 8074.61 L -2160.15 7363.92 L -2084.57 7394.98 L -2378.94 8105.67 L -2454.52 8074.61 Z M -2845.43 9018.34 L -2642.56 8528.58 L -2566.98 8559.64 L -2769.85 9049.4 L -2845.43 9018.34 Z M 4163.08 -7688.17 L 3932.11 -7130.57 L 3856.53 -7161.63 L 4087.5 -7719.23 L 4163.08 -7688.17 Z M 4654.52 -8874.61 L 4360.15 -8163.92 L 4284.57 -8194.98 L 4578.94 -8905.67 L 4654.52 -8874.61 Z M 5045.43 -9818.34 L 4842.56 -9328.58 L 4766.98 -9359.64 L 4969.85 -9849.4 L 5045.43 -9818.34 Z M -2586.69 6593.33 L -2308 6057.98 L -2235.3 6095.78 L -2513.99 6631.13 L -2586.69 6593.33 Z M -3179.66 7732.43 L -2824.47 7050.1 L -2751.77 7087.9 L -3106.96 7770.23 L -3179.66 7732.43 Z M -3651.34 8638.5 L -3406.55 8168.28 L -3333.85 8206.08 L -3578.64 8676.3 L -3651.34 8638.5 Z M 4786.69 -7393.33 L 4508 -6857.98 L 4435.3 -6895.78 L 4713.99 -7431.13 L 4786.69 -7393.33 Z M 5379.66 -8532.43 L 5024.47 -7850.1 L 4951.77 -7887.9 L 5306.96 -8570.23 L 5379.66 -8532.43 Z M 5851.34 -9438.5 L 5606.55 -8968.28 L 5533.85 -9006.08 L 5778.64 -9476.3 L 5851.34 -9438.5 Z M -3182.03 6245.46 L -2857.74 5736.44 L -2788.88 5780.32 L -3113.17 6289.34 L -3182.03 6245.46 Z M -3872.03 7328.54 L -3458.72 6679.76 L -3389.86 6723.64 L -3803.17 7372.42 L -3872.03 7328.54 Z M -4420.88 8190.05 L -4136.05 7742.96 L -4067.19 7786.84 L -4352.02 8233.93 L -4420.88 8190.05 Z M 5382.03 -7045.46 L 5057.74 -6536.44 L 4988.88 -6580.32 L 5313.17 -7089.34 L 5382.03 -7045.46 Z M 6072.03 -8128.54 L 5658.72 -7479.76 L 5589.86 -7523.64 L 6003.17 -8172.42 L 6072.03 -8128.54 Z M 6620.88 -8990.05 L 6336.05 -8542.96 L 6267.19 -8586.84 L 6552.02 -9033.93 L 6620.88 -8990.05 Z M -3745.05 5847.01 L -3377.63 5368.19 L -3312.61 5417.83 L -3680.03 5896.65 L -3745.05 5847.01 Z M -4526.82 6865.83 L -4058.54 6255.54 L -3993.52 6305.18 L -4461.8 6915.47 L -4526.82 6865.83 Z M -5148.67 7676.23 L -4825.95 7255.66 L -4760.93 7305.3 L -5083.65 7725.87 L -5148.67 7676.23 Z M 5945.05 -6647.01 L 5577.63 -6168.19 L 5512.61 -6217.83 L 5880.03 -6696.65 L 5945.05 -6647.01 Z M 6726.82 -7665.83 L 6258.54 -7055.54 L 6193.52 -7105.18 L 6661.8 -7715.47 L 6726.82 -7665.83 Z M 7348.67 -8476.23 L 7025.95 -8055.66 L 6960.93 -8105.3 L 7283.65 -8525.87 L 7348.67 -8476.23 Z M -4270.97 5400.98 L -3863.21 4956 L -3802.99 5011.08 L -4210.75 5456.06 L -4270.97 5400.98 Z M -5138.55 6347.79 L -4618.86 5780.64 L -4558.64 5835.72 L -5078.33 6402.87 L -5138.55 6347.79 Z M -5828.66 7100.91 L -5470.52 6710.07 L -5410.3 6765.15 L -5768.44 7155.99 L -5828.66 7100.91 Z M 6470.97 -6200.98 L 6063.21 -5756 L 6002.99 -5811.08 L 6410.75 -6256.06 L 6470.97 -6200.98 Z M 7338.55 -7147.79 L 6818.86 -6580.64 L 6758.64 -6635.72 L 7278.33 -7202.87 L 7338.55 -7147.79 Z M 8028.66 -7900.91 L 7670.52 -7510.07 L 7610.3 -7565.15 L 7968.44 -7955.99 L 8028.66 -7900.91 Z M -4756.06 4910.74 L -4311.08 4503 L -4256 4563.22 L -4700.98 4970.96 L -4756.06 4910.74 Z M -5702.86 5778.33 L -5135.72 5258.64 L -5080.64 5318.86 L -5647.78 5838.55 L -5702.86 5778.33 Z M -6455.99 6468.44 L -6065.15 6110.3 L -6010.07 6170.52 L -6400.91 6528.66 L -6455.99 6468.44 Z M 6956.06 -5710.74 L 6511.08 -5303 L 6456 -5363.22 L 6900.98 -5770.96 L 6956.06 -5710.74 Z M 7902.86 -6578.33 L 7335.72 -6058.64 L 7280.64 -6118.86 L 7847.78 -6638.55 L 7902.86 -6578.33 Z M 8655.99 -7268.44 L 8265.15 -6910.3 L 8210.07 -6970.52 L 8600.91 -7328.66 L 8655.99 -7268.44 Z M -5196.65 4380.03 L -4717.82 4012.62 L -4668.18 4077.64 L -5147.01 4445.05 L -5196.65 4380.03 Z M -6215.46 5161.8 L -5605.19 4693.51 L -5555.55 4758.53 L -6165.82 5226.82 L -6215.46 5161.8 Z M -7025.87 5783.64 L -6605.3 5460.93 L -6555.66 5525.95 L -6976.23 5848.66 L -7025.87 5783.64 Z M 7396.65 -5180.03 L 6917.82 -4812.62 L 6868.18 -4877.64 L 7347.01 -5245.05 L 7396.65 -5180.03 Z M 8415.46 -5961.8 L 7805.19 -5493.51 L 7755.55 -5558.53 L 8365.82 -6026.82 L 8415.46 -5961.8 Z M 9225.87 -6583.64 L 8805.3 -6260.93 L 8755.66 -6325.95 L 9176.23 -6648.66 L 9225.87 -6583.64 Z M -5589.34 3813.17 L -5080.31 3488.89 L -5036.43 3557.75 L -5545.46 3882.03 L -5589.34 3813.17 Z M -6672.42 4503.17 L -6023.65 4089.85 L -5979.77 4158.71 L -6628.54 4572.03 L -6672.42 4503.17 Z M -7533.94 5052.01 L -7086.84 4767.19 L -7042.96 4836.05 L -7490.06 5120.87 L -7533.94 5052.01 Z M 7789.34 -4613.17 L 7280.31 -4288.89 L 7236.43 -4357.75 L 7745.46 -4682.03 L 7789.34 -4613.17 Z M 8872.42 -5303.17 L 8223.65 -4889.85 L 8179.77 -4958.71 L 8828.54 -5372.03 L 8872.42 -5303.17 Z M 9733.94 -5852.01 L 9286.84 -5567.19 L 9242.96 -5636.05 L 9690.06 -5920.87 L 9733.94 -5852.01 Z M -5931.13 3213.99 L -5395.78 2935.31 L -5357.98 3008.01 L -5893.33 3286.69 L -5931.13 3213.99 Z M -7070.22 3806.96 L -6387.9 3451.76 L -6350.1 3524.46 L -7032.42 3879.66 L -7070.22 3806.96 Z M -7976.3 4278.63 L -7506.08 4033.85 L -7468.28 4106.55 L -7938.5 4351.33 L -7976.3 4278.63 Z M 8131.13 -4013.99 L 7595.78 -3735.31 L 7557.98 -3808.01 L 8093.33 -4086.69 L 8131.13 -4013.99 Z M 9270.22 -4606.96 L 8587.9 -4251.76 L 8550.1 -4324.46 L 9232.42 -4679.66 L 9270.22 -4606.96 Z M 10176.3 -5078.63 L 9706.08 -4833.85 L 9668.28 -4906.55 L 10138.5 -5151.33 L 10176.3 -5078.63 Z M -6219.23 2587.5 L -5661.62 2356.54 L -5630.56 2432.12 L -6188.17 2663.08 L -6219.23 2587.5 Z M -7405.66 3078.94 L -6694.98 2784.56 L -6663.92 2860.14 L -7374.6 3154.52 L -7405.66 3078.94 Z M -8349.4 3469.84 L -7859.64 3266.98 L -7828.58 3342.56 L -8318.34 3545.42 L -8349.4 3469.84 Z M 8419.23 -3387.5 L 7861.62 -3156.54 L 7830.56 -3232.12 L 8388.17 -3463.08 L 8419.23 -3387.5 Z M 9605.66 -3878.94 L 8894.98 -3584.56 L 8863.92 -3660.14 L 9574.6 -3954.52 L 9605.66 -3878.94 Z M 10549.4 -4269.84 L 10059.64 -4066.98 L 10028.58 -4142.56 L 10518.34 -4345.42 L 10549.4 -4269.84 Z M -6451.75 1938.15 L -5876.13 1756.66 L -5851.79 1834.8 L -6427.41 2016.29 L -6451.75 1938.15 Z M -7676.5 2324.32 L -6942.86 2092.99 L -6918.52 2171.13 L -7652.16 2402.46 L -7676.5 2324.32 Z M -8650.72 2631.48 L -8145.14 2472.07 L -8120.8 2550.21 L -8626.38 2709.62 L -8650.72 2631.48 Z M 8651.75 -2738.15 L 8076.13 -2556.66 L 8051.79 -2634.8 L 8627.41 -2816.29 L 8651.75 -2738.15 Z M 9876.5 -3124.32 L 9142.86 -2892.99 L 9118.52 -2971.13 L 9852.16 -3202.46 L 9876.5 -3124.32 Z M 10850.72 -3431.48 L 10345.14 -3272.07 L 10320.8 -3350.21 L 10826.38 -3509.62 L 10850.72 -3431.48 Z M -6626.88 1271.18 L -6037.64 1140.56 L -6020.02 1220.3 L -6609.26 1350.92 L -6626.88 1271.18 Z M -7880.63 1549.14 L -7129.63 1382.64 L -7112.01 1462.38 L -7863.01 1628.88 L -7880.63 1549.14 Z M -8877.91 1770.22 L -8360.37 1655.49 L -8342.75 1735.23 L -8860.29 1849.96 L -8877.91 1770.22 Z M 8826.88 -2071.18 L 8237.64 -1940.56 L 8220.02 -2020.3 L 8809.26 -2150.92 L 8826.88 -2071.18 Z M 10080.63 -2349.14 L 9329.63 -2182.64 L 9312.01 -2262.38 L 10063.01 -2428.88 L 10080.63 -2349.14 Z M 11077.91 -2570.22 L 10560.37 -2455.49 L 10542.75 -2535.23 L 11060.29 -2649.96 L 11077.91 -2570.22 Z M -6743.11 591.36 L -6144.73 512.59 L -6134.17 593.61 L -6732.55 672.38 L -6743.11 591.36 Z M -8016.32 758.98 L -7253.66 658.57 L -7243.1 739.59 L -8005.76 840 L -8016.32 758.98 Z M -9029.07 892.31 L -8503.49 823.12 L -8492.93 904.14 L -9018.51 973.33 L -9029.07 892.31 Z M 8943.11 -1391.36 L 8344.73 -1312.59 L 8334.17 -1393.61 L 8932.55 -1472.38 L 8943.11 -1391.36 Z M 10216.32 -1558.98 L 9453.66 -1458.57 L 9443.1 -1539.59 L 10205.76 -1640 L 10216.32 -1558.98 Z M 11229.07 -1692.31 L 10703.49 -1623.12 L 10692.93 -1704.14 L 11218.51 -1773.33 L 11229.07 -1692.31 Z M -6799.7 -96 L -6196.73 -122.32 L -6193.21 -40.66 L -6796.18 -14.34 L -6799.7 -96 Z M -8082.67 -39.98 L -7314.16 -73.54 L -7310.64 8.12 L -8079.15 41.68 L -8082.67 -39.98 Z M -9103.19 4.57 L -8573.58 -18.55 L -8570.06 63.11 L -9099.67 86.23 L -9103.19 4.57 Z M 8999.7 -704 L 8396.73 -677.68 L 8393.21 -759.34 L 8996.18 -785.66 L 8999.7 -704 Z M 10282.67 -760.02 L 9514.16 -726.46 L 9510.64 -808.12 L 10279.15 -841.68 L 10282.67 -760.02 Z M 11303.19 -804.57 L 10773.58 -781.45 L 10770.06 -863.11 L 11299.67 -886.23 L 11303.19 -804.57 Z M -6796.18 -785.66 L -6193.21 -759.33 L -6196.73 -677.67 L -6799.7 -704 L -6796.18 -785.66 Z M -8079.15 -841.67 L -7310.64 -808.13 L -7314.16 -726.47 L -8082.67 -760.01 L -8079.15 -841.67 Z M -9099.67 -886.24 L -8570.06 -863.11 L -8573.58 -781.45 L -9103.19 -804.58 L -9099.67 -886.24 Z M 8996.18 -14.34 L 8393.21 -40.67 L 8396.73 -122.33 L 8999.7 -96 L 8996.18 -14.34 Z M 10279.15 41.67 L 9510.64 8.13 L 9514.16 -73.53 L 10282.67 -39.99 L 10279.15 41.67 Z M 11299.67 86.24 L 10770.06 63.11 L 10773.58 -18.55 L 11303.19 4.58 L 11299.67 86.24 Z M -6732.55 -1472.38 L -6134.17 -1393.6 L -6144.73 -1312.58 L -6743.11 -1391.36 L -6732.55 -1472.38 Z M -8005.76 -1640 L -7243.1 -1539.6 L -7253.66 -1458.58 L -8016.32 -1558.98 L -8005.76 -1640 Z M -9018.51 -1773.34 L -8492.93 -1704.14 L -8503.49 -1623.12 L -9029.07 -1692.32 L -9018.51 -1773.34 Z M 8932.55 672.38 L 8334.17 593.6 L 8344.73 512.58 L 8943.11 591.36 L 8932.55 672.38 Z M 10205.76 840 L 9443.1 739.6 L 9453.66 658.58 L 10216.32 758.98 L 10205.76 840 Z M 11218.51 973.34 L 10692.93 904.14 L 10703.49 823.12 L 11229.07 892.32 L 11218.51 973.34 Z M -6609.26 -2150.93 L -6020.03 -2020.29 L -6037.65 -1940.55 L -6626.88 -2071.19 L -6609.26 -2150.93 Z M -7863.02 -2428.87 L -7112.01 -2262.38 L -7129.63 -2182.64 L -7880.64 -2349.13 L -7863.02 -2428.87 Z M -8860.29 -2649.97 L -8342.74 -2535.23 L -8360.36 -2455.49 L -8877.91 -2570.23 L -8860.29 -2649.97 Z M 8809.26 1350.93 L 8220.03 1220.29 L 8237.65 1140.55 L 8826.88 1271.19 L 8809.26 1350.93 Z M 10063.02 1628.87 L 9312.01 1462.38 L 9329.63 1382.64 L 10080.64 1549.13 L 10063.02 1628.87 Z M 11060.29 1849.97 L 10542.74 1735.23 L 10560.36 1655.49 L 11077.91 1770.23 L 11060.29 1849.97 Z M -6427.4 -2816.29 L -5851.8 -2634.8 L -5876.14 -2556.66 L -6451.74 -2738.15 L -6427.4 -2816.29 Z M -7652.16 -3202.45 L -6918.52 -2971.14 L -6942.86 -2893 L -7676.5 -3124.31 L -7652.16 -3202.45 Z M -8626.37 -3509.63 L -8120.8 -3350.21 L -8145.14 -3272.07 L -8650.71 -3431.49 L -8626.37 -3509.63 Z M 8627.4 2016.29 L 8051.8 1834.8 L 8076.14 1756.66 L 8651.74 1938.15 L 8627.4 2016.29 Z M 9852.16 2402.45 L 9118.52 2171.14 L 9142.86 2093 L 9876.5 2324.31 L 9852.16 2402.45 Z M 10826.37 2709.63 L 10320.8 2550.21 L 10345.14 2472.07 L 10850.71 2631.49 L 10826.37 2709.63 Z M -6188.17 -3463.08 L -5630.57 -3232.11 L -5661.63 -3156.53 L -6219.23 -3387.5 L -6188.17 -3463.08 Z M -7374.61 -3954.52 L -6663.92 -3660.15 L -6694.98 -3584.57 L -7405.67 -3878.94 L -7374.61 -3954.52 Z M -8318.34 -4345.43 L -7828.58 -4142.56 L -7859.64 -4066.98 L -8349.4 -4269.85 L -8318.34 -4345.43 Z M 8388.17 2663.08 L 7830.57 2432.11 L 7861.63 2356.53 L 8419.23 2587.5 L 8388.17 2663.08 Z M 9574.61 3154.52 L 8863.92 2860.15 L 8894.98 2784.57 L 9605.67 3078.94 L 9574.61 3154.52 Z M 10518.34 3545.43 L 10028.58 3342.56 L 10059.64 3266.98 L 10549.4 3469.85 L 10518.34 3545.43 Z M -5893.33 -4086.69 L -5357.98 -3808 L -5395.78 -3735.3 L -5931.13 -4013.99 L -5893.33 -4086.69 Z M -7032.43 -4679.66 L -6350.1 -4324.47 L -6387.9 -4251.77 L -7070.23 -4606.96 L -7032.43 -4679.66 Z M -7938.5 -5151.34 L -7468.28 -4906.55 L -7506.08 -4833.85 L -7976.3 -5078.64 L -7938.5 -5151.34 Z M 8093.33 3286.69 L 7557.98 3008 L 7595.78 2935.3 L 8131.13 3213.99 L 8093.33 3286.69 Z M 9232.43 3879.66 L 8550.1 3524.47 L 8587.9 3451.77 L 9270.23 3806.96 L 9232.43 3879.66 Z M 10138.5 4351.34 L 9668.28 4106.55 L 9706.08 4033.85 L 10176.3 4278.64 L 10138.5 4351.34 Z M -5545.46 -4682.03 L -5036.44 -4357.74 L -5080.32 -4288.88 L -5589.34 -4613.17 L -5545.46 -4682.03 Z M -6628.54 -5372.03 L -5979.76 -4958.72 L -6023.64 -4889.86 L -6672.42 -5303.17 L -6628.54 -5372.03 Z M -7490.05 -5920.88 L -7042.96 -5636.05 L -7086.84 -5567.19 L -7533.93 -5852.02 L -7490.05 -5920.88 Z M 7745.46 3882.03 L 7236.44 3557.74 L 7280.32 3488.88 L 7789.34 3813.17 L 7745.46 3882.03 Z M 8828.54 4572.03 L 8179.76 4158.72 L 8223.64 4089.86 L 8872.42 4503.17 L 8828.54 4572.03 Z M 9690.05 5120.88 L 9242.96 4836.05 L 9286.84 4767.19 L 9733.93 5052.02 L 9690.05 5120.88 Z M -5147.01 -5245.05 L -4668.19 -4877.63 L -4717.83 -4812.61 L -5196.65 -5180.03 L -5147.01 -5245.05 Z M -6165.83 -6026.82 L -5555.54 -5558.54 L -5605.18 -5493.52 L -6215.47 -5961.8 L -6165.83 -6026.82 Z M -6976.23 -6648.67 L -6555.66 -6325.95 L -6605.3 -6260.93 L -7025.87 -6583.65 L -6976.23 -6648.67 Z M 7347.01 4445.05 L 6868.19 4077.63 L 6917.83 4012.61 L 7396.65 4380.03 L 7347.01 4445.05 Z M 8365.83 5226.82 L 7755.54 4758.54 L 7805.18 4693.52 L 8415.47 5161.8 L 8365.83 5226.82 Z M 9176.23 5848.67 L 8755.66 5525.95 L 8805.3 5460.93 L 9225.87 5783.65 L 9176.23 5848.67 Z M -4700.98 -5770.97 L -4256 -5363.21 L -4311.08 -5302.99 L -4756.06 -5710.75 L -4700.98 -5770.97 Z M -5647.79 -6638.55 L -5080.64 -6118.86 L -5135.72 -6058.64 L -5702.87 -6578.33 L -5647.79 -6638.55 Z M -6400.91 -7328.66 L -6010.07 -6970.52 L -6065.15 -6910.3 L -6455.99 -7268.44 L -6400.91 -7328.66 Z M 6900.98 4970.97 L 6456 4563.21 L 6511.08 4502.99 L 6956.06 4910.75 L 6900.98 4970.97 Z M 7847.79 5838.55 L 7280.64 5318.86 L 7335.72 5258.64 L 7902.87 5778.33 L 7847.79 5838.55 Z M 8600.91 6528.66 L 8210.07 6170.52 L 8265.15 6110.3 L 8655.99 6468.44 L 8600.91 6528.66 Z M -4210.74 -6256.06 L -3803 -5811.08 L -3863.22 -5756 L -4270.96 -6200.98 L -4210.74 -6256.06 Z M -5078.33 -7202.86 L -4558.64 -6635.72 L -4618.86 -6580.64 L -5138.55 -7147.78 L -5078.33 -7202.86 Z M -5768.44 -7955.99 L -5410.3 -7565.15 L -5470.52 -7510.07 L -5828.66 -7900.91 L -5768.44 -7955.99 Z M 6410.74 5456.06 L 6003 5011.08 L 6063.22 4956 L 6470.96 5400.98 L 6410.74 5456.06 Z M 7278.33 6402.86 L 6758.64 5835.72 L 6818.86 5780.64 L 7338.55 6347.78 L 7278.33 6402.86 Z M 7968.44 7155.99 L 7610.3 6765.15 L 7670.52 6710.07 L 8028.66 7100.91 L 7968.44 7155.99 Z M -3680.03 -6696.65 L -3312.62 -6217.82 L -3377.64 -6168.18 L -3745.05 -6647.01 L -3680.03 -6696.65 Z M -4461.8 -7715.46 L -3993.51 -7105.19 L -4058.53 -7055.55 L -4526.82 -7665.82 L -4461.8 -7715.46 Z M -5083.64 -8525.87 L -4760.93 -8105.3 L -4825.95 -8055.66 L -5148.66 -8476.23 L -5083.64 -8525.87 Z M 5880.03 5896.65 L 5512.62 5417.82 L 5577.64 5368.18 L 5945.05 5847.01 L 5880.03 5896.65 Z M 6661.8 6915.46 L 6193.51 6305.19 L 6258.53 6255.55 L 6726.82 6865.82 L 6661.8 6915.46 Z M 7283.64 7725.87 L 6960.93 7305.3 L 7025.95 7255.66 L 7348.66 7676.23 L 7283.64 7725.87 Z M -3113.17 -7089.34 L -2788.89 -6580.31 L -2857.75 -6536.43 L -3182.03 -7045.46 L -3113.17 -7089.34 Z M -3803.17 -8172.42 L -3389.85 -7523.65 L -3458.71 -7479.77 L -3872.03 -8128.54 L -3803.17 -8172.42 Z M -4352.01 -9033.94 L -4067.19 -8586.84 L -4136.05 -8542.96 L -4420.87 -8990.06 L -4352.01 -9033.94 Z M 5313.17 6289.34 L 4988.89 5780.31 L 5057.75 5736.43 L 5382.03 6245.46 L 5313.17 6289.34 Z M 6003.17 7372.42 L 5589.85 6723.65 L 5658.71 6679.77 L 6072.03 7328.54 L 6003.17 7372.42 Z M 6552.01 8233.94 L 6267.19 7786.84 L 6336.05 7742.96 L 6620.87 8190.06 L 6552.01 8233.94 Z M -2513.99 -7431.13 L -2235.31 -6895.78 L -2308.01 -6857.98 L -2586.69 -7393.33 L -2513.99 -7431.13 Z M -3106.96 -8570.22 L -2751.76 -7887.9 L -2824.46 -7850.1 L -3179.66 -8532.42 L -3106.96 -8570.22 Z M -3578.63 -9476.3 L -3333.85 -9006.08 L -3406.55 -8968.28 L -3651.33 -9438.5 L -3578.63 -9476.3 Z M 4713.99 6631.13 L 4435.31 6095.78 L 4508.01 6057.98 L 4786.69 6593.33 L 4713.99 6631.13 Z M 5306.96 7770.22 L 4951.76 7087.9 L 5024.46 7050.1 L 5379.66 7732.42 L 5306.96 7770.22 Z M 5778.63 8676.3 L 5533.85 8206.08 L 5606.55 8168.28 L 5851.33 8638.5 L 5778.63 8676.3 Z M -1887.5 -7719.23 L -1656.54 -7161.62 L -1732.12 -7130.56 L -1963.08 -7688.17 L -1887.5 -7719.23 Z M -2378.94 -8905.66 L -2084.56 -8194.98 L -2160.14 -8163.92 L -2454.52 -8874.6 L -2378.94 -8905.66 Z M -2769.84 -9849.4 L -2566.98 -9359.64 L -2642.56 -9328.58 L -2845.42 -9818.34 L -2769.84 -9849.4 Z M 4087.5 6919.23 L 3856.54 6361.62 L 3932.12 6330.56 L 4163.08 6888.17 L 4087.5 6919.23 Z M 4578.94 8105.66 L 4284.56 7394.98 L 4360.14 7363.92 L 4654.52 8074.6 L 4578.94 8105.66 Z M 4969.84 9049.4 L 4766.98 8559.64 L 4842.56 8528.58 L 5045.42 9018.34 L 4969.84 9049.4 Z M -571.18 -8126.88 L -440.56 -7537.64 L -520.3 -7520.02 L -650.92 -8109.26 L -571.18 -8126.88 Z M -849.14 -9380.63 L -682.64 -8629.63 L -762.38 -8612.01 L -928.88 -9363.01 L -849.14 -9380.63 Z M -1070.22 -10377.91 L -955.49 -9860.37 L -1035.23 -9842.75 L -1149.96 -10360.29 L -1070.22 -10377.91 Z M 2771.18 7326.88 L 2640.56 6737.64 L 2720.3 6720.02 L 2850.92 7309.26 L 2771.18 7326.88 Z M 3049.14 8580.63 L 2882.64 7829.63 L 2962.38 7812.01 L 3128.88 8563.01 L 3049.14 8580.63 Z M 3270.22 9577.91 L 3155.49 9060.37 L 3235.23 9042.75 L 3349.96 9560.29 L 3270.22 9577.91 Z M -1238.15 -7951.75 L -1056.66 -7376.13 L -1134.8 -7351.79 L -1316.29 -7927.41 L -1238.15 -7951.75 Z M -1624.32 -9176.5 L -1392.99 -8442.86 L -1471.13 -8418.52 L -1702.46 -9152.16 L -1624.32 -9176.5 Z M -1931.48 -10150.72 L -1772.07 -9645.14 L -1850.21 -9620.8 L -2009.62 -10126.38 L -1931.48 -10150.72 Z M 3438.15 7151.75 L 3256.66 6576.13 L 3334.8 6551.79 L 3516.29 7127.41 L 3438.15 7151.75 Z M 3824.32 8376.5 L 3592.99 7642.86 L 3671.13 7618.52 L 3902.46 8352.16 L 3824.32 8376.5 Z M 4131.48 9350.72 L 3972.07 8845.14 L 4050.21 8820.8 L 4209.62 9326.38 L 4131.48 9350.72 Z M 108.64 -8243.11 L 187.41 -7644.73 L 106.39 -7634.17 L 27.62 -8232.55 L 108.64 -8243.11 Z M -58.98 -9516.32 L 41.43 -8753.66 L -39.59 -8743.1 L -140 -9505.76 L -58.98 -9516.32 Z M -192.31 -10529.07 L -123.12 -10003.49 L -204.14 -9992.93 L -273.33 -10518.51 L -192.31 -10529.07 Z M 2091.36 7443.11 L 2012.59 6844.73 L 2093.61 6834.17 L 2172.38 7432.55 L 2091.36 7443.11 Z M 2258.98 8716.32 L 2158.57 7953.66 L 2239.59 7943.1 L 2340 8705.76 L 2258.98 8716.32 Z M 2392.31 9729.07 L 2323.12 9203.49 L 2404.14 9192.93 L 2473.33 9718.51 L 2392.31 9729.07 Z M 796 -8299.7 L 822.32 -7696.73 L 740.66 -7693.21 L 714.34 -8296.18 L 796 -8299.7 Z M 739.98 -9582.67 L 773.54 -8814.16 L 691.88 -8810.64 L 658.32 -9579.15 L 739.98 -9582.67 Z M 695.43 -10603.19 L 718.55 -10073.58 L 636.89 -10070.06 L 613.77 -10599.67 L 695.43 -10603.19 Z M 1404 7499.7 L 1377.68 6896.73 L 1459.34 6893.21 L 1485.66 7496.18 L 1404 7499.7 Z M 1460.02 8782.67 L 1426.46 8014.16 L 1508.12 8010.64 L 1541.68 8779.15 L 1460.02 8782.67 Z"/>
</svg>